<?xml version="1.0" encoding="UTF-8"?>
<svg width="768px" height="280px" viewBox="0 0 768 280" version="1.1" xmlns="http://www.w3.org/2000/svg" xmlns:xlink="http://www.w3.org/1999/xlink">
    <!-- Generator: Sketch 43.2 (39069) - http://www.bohemiancoding.com/sketch -->
    <title>admin-engine</title>
    <desc>Created with Sketch.</desc>
    <defs>
        <rect id="path-1" x="137" y="16" width="502" height="202" rx="8"></rect>
        <rect id="path-2" x="-183" y="17" width="299" height="122" rx="8"></rect>
        <rect id="path-3" x="199" y="64" width="204" height="54" rx="8"></rect>
        <rect id="path-4" x="474" y="63" width="116" height="54" rx="8"></rect>
        <rect id="path-5" x="200" y="144" width="204" height="54" rx="8"></rect>
        <rect id="path-6" x="659" y="16" width="299" height="122" rx="8"></rect>
        <rect id="path-7" x="197" y="237" width="24" height="26" rx="8"></rect>
        <rect id="path-8" x="503" y="237" width="24" height="26" rx="8"></rect>
        <rect id="path-9" x="344" y="238" width="24" height="26" rx="8"></rect>
    </defs>
    <g id="Page-1" stroke="none" stroke-width="1" fill="none" fill-rule="evenodd">
        <g id="admin-engine">
            <g id="Rectangle">
                <use fill="#FFFFFF" fill-rule="evenodd" xlink:href="#path-1"></use>
                <rect stroke="#979797" stroke-width="1" x="137.5" y="16.5" width="501" height="201" rx="8"></rect>
            </g>
            <path d="M402.425773,92 C402.425773,92 373.920292,92 416.052788,92 C444.977801,92 438.358245,134.774971 439.290174,143.473615 C443.301309,180.913607 470.788182,173.219122 470.788182,173.219122" id="Line" stroke="#979797" stroke-linecap="square" transform="translate(431.894091, 132.936017) scale(-1, 1) translate(-431.894091, -132.936017) "></path>
            <g id="Rectangle">
                <use fill="#FFFFFF" fill-rule="evenodd" xlink:href="#path-2"></use>
                <rect stroke="#979797" stroke-width="1" x="-182.5" y="17.5" width="298" height="121" rx="8"></rect>
            </g>
            <g id="Rectangle">
                <use fill="#C6DDFF" fill-rule="evenodd" xlink:href="#path-3"></use>
                <rect stroke="#979797" stroke-width="1" x="199.5" y="64.5" width="203" height="53" rx="8"></rect>
            </g>
            <g id="Rectangle">
                <use fill="#FFE6E6" fill-rule="evenodd" xlink:href="#path-4"></use>
                <rect stroke="#979797" stroke-width="1" x="474.5" y="63.5" width="115" height="53" rx="8"></rect>
            </g>
            <g id="Rectangle">
                <use fill="#C6DDFF" fill-rule="evenodd" xlink:href="#path-5"></use>
                <rect stroke="#979797" stroke-width="1" x="200.5" y="144.5" width="203" height="53" rx="8"></rect>
            </g>
            <text id="Tool-controller-(adm" font-family="GTPressura, GT Pressura" font-size="14" font-weight="normal" fill="#000000">
                <tspan x="225.445" y="96">Tool controller (admin app)</tspan>
            </text>
            <text id="Widget-controller" font-family="GTPressura, GT Pressura" font-size="14" font-weight="normal" fill="#000000">
                <tspan x="257.406" y="177">Widget controller</tspan>
            </text>
            <path d="M32.5,94.5 L198.5,94.5" id="Line" stroke="#9B9B9B" fill="#9B9B9B" stroke-linecap="square"></path>
            <path id="Line-decoration-1" d="M198.5,94.5 L187.7,91.5 L187.7,97.5 L198.5,94.5 Z" stroke="#9B9B9B" fill="#9B9B9B" stroke-linecap="square"></path>
            <path d="M50.5,94.5 L198.5,94.5" id="Line" stroke="#9B9B9B" fill="#9B9B9B" stroke-linecap="square"></path>
            <path id="Line-decoration-1" d="M198.5,94.5 L187.7,91.5 L187.7,97.5 L198.5,94.5 Z" stroke="#9B9B9B" fill="#9B9B9B" stroke-linecap="square"></path>
            <path d="M32.5668351,95 C32.5668351,95 110.48912,95 148.798348,95 C175.098591,95 169.079719,135.162664 169.927081,143.330074 C173.57423,178.483572 198.566835,171.258996 198.566835,171.258996" id="Line" stroke="#979797" stroke-linecap="square"></path>
            <path id="Line-decoration-1" d="M198.566835,171.258996 L187.766835,168.258996 L187.766835,174.258996 L198.566835,171.258996 Z" stroke="#979797" stroke-linecap="square"></path>
            <text id="Admin-Engine" font-family="GTPressura-Bold, GT Pressura" font-size="14" font-weight="bold" fill="#000000">
                <tspan x="348.24" y="45">Admin Engine</tspan>
            </text>
            <text id="Request-pipeline" font-family="GTPressura-Bold, GT Pressura" font-size="14" font-weight="bold" fill="#000000">
                <tspan x="33.147" y="49">Request</tspan>
                <tspan x="34.456" y="68">pipeline</tspan>
            </text>
            <g id="Rectangle">
                <use fill="#FFFFFF" fill-rule="evenodd" xlink:href="#path-6"></use>
                <rect stroke="#979797" stroke-width="1" x="659.5" y="16.5" width="298" height="121" rx="8"></rect>
            </g>
            <text id="Response-pipeline" font-family="GTPressura-Bold, GT Pressura" font-size="14" font-weight="bold" fill="#000000">
                <tspan x="687.045" y="48">Response</tspan>
                <tspan x="692.456" y="67">pipeline</tspan>
            </text>
            <path d="M402.5,91.5 L473.507042,91.5" id="Line" stroke="#9B9B9B" fill="#9B9B9B" stroke-linecap="square"></path>
            <path id="Line-decoration-1" d="M473.507042,91.5 L462.707042,88.5 L462.707042,94.5 L473.507042,91.5 Z" stroke="#9B9B9B" fill="#9B9B9B" stroke-linecap="square"></path>
            <path d="M590.5,88.5 L726.5,88.5" id="Line" stroke="#9B9B9B" fill="#9B9B9B" stroke-linecap="square"></path>
            <path id="Line-decoration-1" d="M726.5,88.5 L715.7,85.5 L715.7,91.5 L726.5,88.5 Z" stroke="#9B9B9B" fill="#9B9B9B" stroke-linecap="square"></path>
            <text id="handle401" font-family="GTPressura, GT Pressura" font-size="14" font-weight="normal" fill="#000000">
                <tspan x="505.251" y="94">handle401</tspan>
            </text>
            <text id="Both" font-family="GTPressura, GT Pressura" font-size="14" font-weight="normal" fill="#000000">
                <tspan x="540.015" y="255">Both</tspan>
            </text>
            <g id="Rectangle">
                <use fill="#DAFFB5" fill-rule="evenodd" xlink:href="#path-7"></use>
                <rect stroke="#979797" stroke-width="1" x="197.5" y="237.5" width="23" height="25" rx="8"></rect>
            </g>
            <g id="Rectangle">
                <use fill="#FFE6E6" fill-rule="evenodd" xlink:href="#path-8"></use>
                <rect stroke="#979797" stroke-width="1" x="503.5" y="237.5" width="23" height="25" rx="8"></rect>
            </g>
            <g id="Rectangle">
                <use fill="#C6DEFF" fill-rule="evenodd" xlink:href="#path-9"></use>
                <rect stroke="#979797" stroke-width="1" x="344.5" y="238.5" width="23" height="25" rx="8"></rect>
            </g>
            <text id="Configurable" font-family="GTPressura, GT Pressura" font-size="14" font-weight="normal" fill="#000000">
                <tspan x="232.174" y="255">Configurable</tspan>
            </text>
            <text id="Programmable" font-family="GTPressura, GT Pressura" font-size="14" font-weight="normal" fill="#000000">
                <tspan x="381.176" y="255">Programmable</tspan>
            </text>
        </g>
    </g>
</svg>