<?xml version="1.0" encoding="UTF-8"?>
<svg width="768px" height="360px" viewBox="0 0 768 360" version="1.1" xmlns="http://www.w3.org/2000/svg" xmlns:xlink="http://www.w3.org/1999/xlink">
    <!-- Generator: Sketch 43.2 (39069) - http://www.bohemiancoding.com/sketch -->
    <title>Desktop</title>
    <desc>Created with Sketch.</desc>
    <defs>
        <rect id="path-1" x="119" y="16" width="85" height="54" rx="8"></rect>
        <rect id="path-2" x="228" y="16" width="123" height="54" rx="8"></rect>
        <rect id="path-3" x="376" y="16" width="105" height="54" rx="8"></rect>
        <rect id="path-4" x="505" y="16" width="105" height="54" rx="8"></rect>
        <rect id="path-5" x="634" y="16" width="105" height="54" rx="8"></rect>
        <rect id="path-6" x="202" y="126" width="346" height="54" rx="8"></rect>
        <rect id="path-7" x="55" y="225" width="105" height="54" rx="8"></rect>
        <rect id="path-8" x="162" y="319" width="24" height="26" rx="8"></rect>
        <rect id="path-9" x="468" y="319" width="24" height="26" rx="8"></rect>
        <rect id="path-10" x="309" y="320" width="24" height="26" rx="8"></rect>
        <rect id="path-11" x="184" y="225" width="135" height="54" rx="8"></rect>
        <rect id="path-12" x="343" y="225" width="123" height="54" rx="8"></rect>
        <rect id="path-13" x="490" y="225" width="135" height="54" rx="8"></rect>
    </defs>
    <g id="Page-1" stroke="none" stroke-width="1" fill="none" fill-rule="evenodd">
        <g id="Desktop">
            <g id="Rectangle">
                <use fill="#FFFFFF" fill-rule="evenodd" xlink:href="#path-1"></use>
                <rect stroke="#979797" stroke-width="1" x="119.5" y="16.5" width="84" height="53" rx="8"></rect>
            </g>
            <text id="HTTP-Request" font-family="Helvetica" font-size="14" font-weight="normal" fill="#000000">
                <tspan x="36.2241211" y="39">HTTP</tspan>
                <tspan x="28.4277344" y="56">Request</tspan>
            </text>
            <text id="Vhost-filter" font-family="Helvetica" font-size="14" font-weight="normal" fill="#000000">
                <tspan x="145.100098" y="38">Vhost</tspan>
                <tspan x="149.775879" y="55">filter</tspan>
            </text>
            <g id="Rectangle">
                <use fill="#C6DDFF" fill-rule="evenodd" xlink:href="#path-2"></use>
                <rect stroke="#979797" stroke-width="1" x="228.5" y="16.5" width="122" height="53" rx="8"></rect>
            </g>
            <text id="Java-request-filters" font-family="Helvetica" font-size="14" font-weight="normal" fill="#000000">
                <tspan x="273.713867" y="38">Java </tspan>
                <tspan x="246.48291" y="55">request filters</tspan>
            </text>
            <path d="M-0.5,43.5 L118.5,43.5" id="Line" stroke="#9B9B9B" fill="#9B9B9B" stroke-linecap="square"></path>
            <path id="Line-decoration-1" d="M118.5,43.5 L107.7,40.5 L107.7,46.5 L118.5,43.5 Z" stroke="#9B9B9B" fill="#9B9B9B" stroke-linecap="square"></path>
            <path d="M204.5,43.5 L227.694827,43.5" id="Line" stroke="#9B9B9B" fill="#9B9B9B" stroke-linecap="square"></path>
            <path id="Line-decoration-1" d="M227.694827,43.5 L216.894827,40.5 L216.894827,46.5 L227.694827,43.5 Z" stroke="#9B9B9B" fill="#9B9B9B" stroke-linecap="square"></path>
            <g id="Rectangle">
                <use fill="#C6DDFF" fill-rule="evenodd" xlink:href="#path-3"></use>
                <rect stroke="#979797" stroke-width="1" x="376.5" y="16.5" width="104" height="53" rx="8"></rect>
            </g>
            <path d="M352.5,43.5 L375.694827,43.5" id="Line" stroke="#9B9B9B" fill="#9B9B9B" stroke-linecap="square"></path>
            <path id="Line-decoration-1" d="M375.694827,43.5 L364.894827,40.5 L364.894827,46.5 L375.694827,43.5 Z" stroke="#9B9B9B" fill="#9B9B9B" stroke-linecap="square"></path>
            <g id="Rectangle">
                <use fill="#DFFEC0" fill-rule="evenodd" xlink:href="#path-4"></use>
                <rect stroke="#979797" stroke-width="1" x="505.5" y="16.5" width="104" height="53" rx="8"></rect>
            </g>
            <text id="Asset-service" font-family="Helvetica" font-size="14" font-weight="normal" fill="#000000">
                <tspan x="410.993164" y="40">Asset</tspan>
                <tspan x="406.327637" y="57">service</tspan>
            </text>
            <path d="M481.5,43.5 L504.694827,43.5" id="Line" stroke="#9B9B9B" fill="#9B9B9B" stroke-linecap="square"></path>
            <path id="Line-decoration-1" d="M504.694827,43.5 L493.894827,40.5 L493.894827,46.5 L504.694827,43.5 Z" stroke="#9B9B9B" fill="#9B9B9B" stroke-linecap="square"></path>
            <g id="Rectangle">
                <use fill="#C6DDFF" fill-rule="evenodd" xlink:href="#path-5"></use>
                <rect stroke="#979797" stroke-width="1" x="634.5" y="16.5" width="104" height="53" rx="8"></rect>
            </g>
            <text id="HTTP-services" font-family="Helvetica" font-size="14" font-weight="normal" fill="#000000">
                <tspan x="669.724121" y="38">HTTP</tspan>
                <tspan x="662.327637" y="55">services</tspan>
            </text>
            <g id="Rectangle">
                <use fill="#FFFFFF" fill-rule="evenodd" xlink:href="#path-6"></use>
                <rect stroke="#979797" stroke-width="1" x="202.5" y="126.5" width="345" height="53" rx="8"></rect>
            </g>
            <text id="HTTP-engine-pipeline" font-family="Helvetica" font-size="14" font-weight="normal" fill="#000000">
                <tspan x="300.361328" y="148">HTTP engine pipeline:</tspan>
                <tspan x="299.069336" y="165" font-family="Helvetica-Bold, Helvetica" font-weight="bold">webapp | site | admin</tspan>
            </text>
            <path d="M610.5,43.5 L633.694827,43.5" id="Line" stroke="#9B9B9B" fill="#9B9B9B" stroke-linecap="square"></path>
            <path id="Line-decoration-1" d="M633.694827,43.5 L622.894827,40.5 L622.894827,46.5 L633.694827,43.5 Z" stroke="#9B9B9B" fill="#9B9B9B" stroke-linecap="square"></path>
            <g id="Rectangle">
                <use fill="#DFFEC0" fill-rule="evenodd" xlink:href="#path-7"></use>
                <rect stroke="#979797" stroke-width="1" x="55.5" y="225.5" width="104" height="53" rx="8"></rect>
            </g>
            <g id="Rectangle">
                <use fill="#FFFFFF" fill-rule="evenodd" xlink:href="#path-8"></use>
                <rect stroke="#979797" stroke-width="1" x="162.5" y="319.5" width="23" height="25" rx="8"></rect>
            </g>
            <g id="Rectangle">
                <use fill="#E0FEC0" fill-rule="evenodd" xlink:href="#path-9"></use>
                <rect stroke="#979797" stroke-width="1" x="468.5" y="319.5" width="23" height="25" rx="8"></rect>
            </g>
            <g id="Rectangle">
                <use fill="#C6DEFF" fill-rule="evenodd" xlink:href="#path-10"></use>
                <rect stroke="#979797" stroke-width="1" x="309.5" y="320.5" width="23" height="25" rx="8"></rect>
            </g>
            <text id="HTTP-Response" font-family="Helvetica" font-size="14" font-weight="normal" fill="#000000">
                <tspan x="666.724121" y="247">HTTP</tspan>
                <tspan x="653.479492" y="264">Response</tspan>
            </text>
            <text id="IDprovider-response" font-family="Helvetica" font-size="14" font-weight="normal" fill="#000000">
                <tspan x="75.7104492" y="247">IDprovider</tspan>
                <tspan x="64.034668" y="264">response filter</tspan>
            </text>
            <g id="Rectangle">
                <use fill="#C6DDFF" fill-rule="evenodd" xlink:href="#path-11"></use>
                <rect stroke="#979797" stroke-width="1" x="184.5" y="225.5" width="134" height="53" rx="8"></rect>
            </g>
            <text id="Application-error-ha" font-family="Helvetica" font-size="14" font-weight="normal" fill="#000000">
                <tspan x="216.255371" y="247">Application</tspan>
                <tspan x="208.479492" y="264"> error handler</tspan>
            </text>
            <path d="M625.5,251.5 L754.5,251.5" id="Line" stroke="#9B9B9B" fill="#9B9B9B" stroke-linecap="square"></path>
            <path id="Line-decoration-1" d="M754.5,251.5 L743.7,248.5 L743.7,254.5 L754.5,251.5 Z" stroke="#9B9B9B" fill="#9B9B9B" stroke-linecap="square"></path>
            <path d="M160.5,252.5 L183.694827,252.5" id="Line" stroke="#9B9B9B" fill="#9B9B9B" stroke-linecap="square"></path>
            <path id="Line-decoration-1" d="M183.694827,252.5 L172.894827,249.5 L172.894827,255.5 L183.694827,252.5 Z" stroke="#9B9B9B" fill="#9B9B9B" stroke-linecap="square"></path>
            <g id="Rectangle">
                <use fill="#C6DDFF" fill-rule="evenodd" xlink:href="#path-12"></use>
                <rect stroke="#979797" stroke-width="1" x="343.5" y="225.5" width="122" height="53" rx="8"></rect>
            </g>
            <text id="Java-response-filter" font-family="Helvetica" font-size="14" font-weight="normal" fill="#000000">
                <tspan x="389.713867" y="247">Java</tspan>
                <tspan x="357.034668" y="264">response filters</tspan>
            </text>
            <text id="Configurable" font-family="Helvetica" font-size="14" font-weight="normal" fill="#000000">
                <tspan x="193.307129" y="337">Configurable</tspan>
            </text>
            <text id="Programmable" font-family="Helvetica" font-size="14" font-weight="normal" fill="#000000">
                <tspan x="341.093262" y="337">Programmable</tspan>
            </text>
            <text id="Both" font-family="Helvetica" font-size="14" font-weight="normal" fill="#000000">
                <tspan x="503.100098" y="337">Both</tspan>
            </text>
            <path d="M319.5,252.5 L342.694827,252.5" id="Line" stroke="#9B9B9B" fill="#9B9B9B" stroke-linecap="square"></path>
            <path id="Line-decoration-1" d="M342.694827,252.5 L331.894827,249.5 L331.894827,255.5 L342.694827,252.5 Z" stroke="#9B9B9B" fill="#9B9B9B" stroke-linecap="square"></path>
            <g id="Rectangle">
                <use fill="#FFFFFF" fill-rule="evenodd" xlink:href="#path-13"></use>
                <rect stroke="#979797" stroke-width="1" x="490.5" y="225.5" width="134" height="53" rx="8"></rect>
            </g>
            <text id="Default-error-handle" font-family="Helvetica" font-size="14" font-weight="normal" fill="#000000">
                <tspan x="535.320801" y="247">Default</tspan>
                <tspan x="517.424316" y="264">error handler</tspan>
            </text>
            <path d="M466.5,252.5 L489.694827,252.5" id="Line" stroke="#9B9B9B" fill="#9B9B9B" stroke-linecap="square"></path>
            <path id="Line-decoration-1" d="M489.694827,252.5 L478.894827,249.5 L478.894827,255.5 L489.694827,252.5 Z" stroke="#9B9B9B" fill="#9B9B9B" stroke-linecap="square"></path>
            <text id="IDprovider-request-f" font-family="Helvetica" font-size="14" font-weight="normal" fill="#000000">
                <tspan x="525.710449" y="38">IDprovider</tspan>
                <tspan x="519.48291" y="55">request filter</tspan>
            </text>
            <path d="M737.74728,44 C737.74728,44 787.373852,54.2155917 756.883161,83.5915208 C715.583901,123.380848 217.607754,71.1332489 174.472687,115.092508 C147.154138,142.933039 201.764677,153.99388 201.764677,153.99388" id="Path-2" stroke="#979797"></path>
            <path d="M547.255605,153 C547.255605,153 598.349387,162.922434 569.860897,195.64389 C538.488839,231.677369 65.7830487,177.674638 25.6141971,217.236911 C0.174229372,242.292717 56.3227637,252.967468 56.3227637,252.967468" id="Path-2" stroke="#979797"></path>
        </g>
    </g>
</svg>