<svg version="1.1" xmlns="http://www.w3.org/2000/svg" xmlns:xlink="http://www.w3.org/1999/xlink" width="899" height="312"><style xmlns="http://www.w3.org/1999/xhtml"></style><defs/><g transform="translate(0,0)"><g><rect fill="#FFFFFF" stroke="none" x="0" y="0" width="899" height="312"/></g><g transform="translate(0,0) matrix(1,0,0,1,524.5,20)"><g><g transform="translate(0,0) scale(1.4,0.52)"><g><path fill="rgb(0,0,0)" stroke="none" d="M 0 0 L 100 0 Q 100 0 100 0 L 100 100 Q 100 100 100 100 L 0 100 Q 0 100 0 100 L 0 0 Q 0 0 0 0 Z" fill-opacity="0"/><g transform="scale(0.7142857142857143,1.923076923076923)"><path fill="none" stroke="rbga(0,0,0,0)" d="M 0 0 L 140 0 Q 140 0 140 0 L 140 52 Q 140 52 140 52 L 0 52 Q 0 52 0 52 L 0 0 Q 0 0 0 0 Z" stroke-miterlimit="10" stroke-width="2"/></g></g></g></g></g><g transform="translate(0,0) matrix(1,0,0,1,524.5,20)"><g><g transform="translate(0,0) scale(1.5333333333333334,1.04) translate(0,-1)"><g><g transform="scale(0.6521739130434783,0.9615384615384615)"><path fill="#d9ead3" stroke="#333333" d="M 115.00000000000001 53.04 L 0 53.04 L 0 1.04 L 115.00000000000001 1.04" stroke-miterlimit="10" stroke-width="2"/></g></g></g></g></g><g transform="translate(0,0) matrix(1,0,0,1,639.5,20)"><g><g transform="translate(0,0) scale(0.9615384615384616,1)"><g><g transform="scale(1.04,1)"><path fill="#d9ead3" stroke="#333333" d="M 0 52 L 5.096153846153846 52 L 24.03846153846154 26 L 5.096153846153846 0 L 0 0" stroke-miterlimit="3" stroke-width="2"/></g></g></g></g></g><g transform="matrix(1,0,0,1,535,39)"><g><g><rect fill="rgb(0,0,0)" stroke="none" x="0" y="0" width="104" height="20" fill-opacity="0"/></g></g><g><g><rect fill="rgb(0,0,0)" stroke="none" x="0" y="0" width="104" height="14" fill-opacity="0"/></g></g><g><g><rect fill="rgb(0,0,0)" stroke="none" x="0" y="0" width="71" height="14" fill-opacity="0"/></g><text fill="rgb(0, 0, 0)" stroke="none" font-family="&quot;Arial&quot;" font-size="12px" font-style="normal" font-weight="normal" text-decoration="" line-height="14px" x="0" y="12">Asset</text><text fill="rgb(0, 0, 0)" stroke="none" font-family="&quot;Arial&quot;" font-size="12px" font-style="normal" font-weight="normal" text-decoration="" line-height="14px" x="33.33332824707031" y="12">service</text></g><g><g/></g><g><g/></g><g><g/></g></g><g transform="matrix(1,0,0,1,10,151.5)"><g transform="translate(0,0)"><g transform="translate(-735.5,-177) translate(725.5,25.5) matrix(1,0,0,1,0,0)"><g><path fill="none" stroke="#333333" d="M 690 156 Q 730 156 730 183.5 Q 730 211 372.25 211 Q 14.5 211 14.5 238.5 Q 14.5 266 54.5 266" stroke-miterlimit="10" stroke-width="2"/></g></g></g></g><g transform="translate(0,0) matrix(1,0,0,1,354.5,20)"><g><g transform="translate(0,0) scale(1.4,0.52)"><g><path fill="rgb(0,0,0)" stroke="none" d="M 0 0 L 100 0 Q 100 0 100 0 L 100 100 Q 100 100 100 100 L 0 100 Q 0 100 0 100 L 0 0 Q 0 0 0 0 Z" fill-opacity="0"/><g transform="scale(0.7142857142857143,1.923076923076923)"><path fill="none" stroke="rbga(0,0,0,0)" d="M 0 0 L 140 0 Q 140 0 140 0 L 140 52 Q 140 52 140 52 L 0 52 Q 0 52 0 52 L 0 0 Q 0 0 0 0 Z" stroke-miterlimit="10" stroke-width="2"/></g></g></g></g></g><g transform="translate(0,0) matrix(1,0,0,1,354.5,20)"><g><g transform="translate(0,0) scale(1.5333333333333334,1.04) translate(0,-1)"><g><g transform="scale(0.6521739130434783,0.9615384615384615)"><path fill="#d9ead3" stroke="#333333" d="M 115.00000000000001 53.04 L 0 53.04 L 0 1.04 L 115.00000000000001 1.04" stroke-miterlimit="10" stroke-width="2"/></g></g></g></g></g><g transform="translate(0,0) matrix(1,0,0,1,469.5,20)"><g><g transform="translate(0,0) scale(0.9615384615384616,1)"><g><g transform="scale(1.04,1)"><path fill="#d9ead3" stroke="#333333" d="M 0 52 L 5.096153846153846 52 L 24.03846153846154 26 L 5.096153846153846 0 L 0 0" stroke-miterlimit="3" stroke-width="2"/></g></g></g></g></g><g transform="matrix(1,0,0,1,365,39)"><g><g><rect fill="rgb(0,0,0)" stroke="none" x="0" y="0" width="104" height="20" fill-opacity="0"/></g></g><g><g><rect fill="rgb(0,0,0)" stroke="none" x="0" y="0" width="104" height="14" fill-opacity="0"/></g></g><g><g><rect fill="rgb(0,0,0)" stroke="none" x="0" y="0" width="101" height="14" fill-opacity="0"/></g><text fill="rgb(0, 0, 0)" stroke="none" font-family="&quot;Arial&quot;" font-size="12px" font-style="normal" font-weight="normal" text-decoration="" line-height="14px" x="0" y="12">Java</text><text fill="rgb(0, 0, 0)" stroke="none" font-family="&quot;Arial&quot;" font-size="12px" font-style="normal" font-weight="normal" text-decoration="" line-height="14px" x="28.666671752929688" y="12">request</text><text fill="rgb(0, 0, 0)" stroke="none" font-family="&quot;Arial&quot;" font-size="12px" font-style="normal" font-weight="normal" text-decoration="" line-height="14px" x="72" y="12">filters</text></g><g><g/></g><g><g/></g><g><g/></g></g><g transform="translate(0,0) matrix(1,0,0,1,184.5,20)"><g><g transform="translate(0,0) scale(1.4,0.52)"><g><path fill="rgb(0,0,0)" stroke="none" d="M 0 0 L 100 0 Q 100 0 100 0 L 100 100 Q 100 100 100 100 L 0 100 Q 0 100 0 100 L 0 0 Q 0 0 0 0 Z" fill-opacity="0"/><g transform="scale(0.7142857142857143,1.923076923076923)"><path fill="none" stroke="rbga(0,0,0,0)" d="M 0 0 L 140 0 Q 140 0 140 0 L 140 52 Q 140 52 140 52 L 0 52 Q 0 52 0 52 L 0 0 Q 0 0 0 0 Z" stroke-miterlimit="10" stroke-width="2"/></g></g></g></g></g><g transform="translate(0,0) matrix(1,0,0,1,184.5,20)"><g><g transform="translate(0,0) scale(1.5333333333333334,1.04) translate(0,-1)"><g><g transform="scale(0.6521739130434783,0.9615384615384615)"><path fill="#fff2cc" stroke="#333333" d="M 115.00000000000001 53.04 L 0 53.04 L 0 1.04 L 115.00000000000001 1.04" stroke-miterlimit="10" stroke-width="2"/></g></g></g></g></g><g transform="translate(0,0) matrix(1,0,0,1,299.5,20)"><g><g transform="translate(0,0) scale(0.9615384615384616,1)"><g><g transform="scale(1.04,1)"><path fill="#fff2cc" stroke="#333333" d="M 0 52 L 5.096153846153846 52 L 24.03846153846154 26 L 5.096153846153846 0 L 0 0" stroke-miterlimit="3" stroke-width="2"/></g></g></g></g></g><g transform="matrix(1,0,0,1,195,39)"><g><g><rect fill="rgb(0,0,0)" stroke="none" x="0" y="0" width="104" height="20" fill-opacity="0"/></g></g><g><g><rect fill="rgb(0,0,0)" stroke="none" x="0" y="0" width="104" height="14" fill-opacity="0"/></g></g><g><g><rect fill="rgb(0,0,0)" stroke="none" x="0" y="0" width="57" height="14" fill-opacity="0"/></g><text fill="rgb(0, 0, 0)" stroke="none" font-family="&quot;Arial&quot;" font-size="12px" font-style="normal" font-weight="normal" text-decoration="" line-height="14px" x="0" y="12">Vhost</text><text fill="rgb(0, 0, 0)" stroke="none" font-family="&quot;Arial&quot;" font-size="12px" font-style="normal" font-weight="normal" text-decoration="" line-height="14px" x="34" y="12">filter</text></g><g><g/></g><g><g/></g><g><g/></g></g><g transform="translate(0,0) matrix(1,0,0,1,54.5,240)"><g><g transform="translate(0,0) scale(1.4,0.52)"><g><path fill="rgb(0,0,0)" stroke="none" d="M 0 0 L 100 0 Q 100 0 100 0 L 100 100 Q 100 100 100 100 L 0 100 Q 0 100 0 100 L 0 0 Q 0 0 0 0 Z" fill-opacity="0"/><g transform="scale(0.7142857142857143,1.923076923076923)"><path fill="none" stroke="rbga(0,0,0,0)" d="M 0 0 L 140 0 Q 140 0 140 0 L 140 52 Q 140 52 140 52 L 0 52 Q 0 52 0 52 L 0 0 Q 0 0 0 0 Z" stroke-miterlimit="10" stroke-width="2"/></g></g></g></g></g><g transform="translate(0,0) matrix(1,0,0,1,54.5,240)"><g><g transform="translate(0,0) scale(1.5333333333333334,1.04) translate(0,-1)"><g><g transform="scale(0.6521739130434783,0.9615384615384615)"><path fill="#d9ead3" stroke="#333333" d="M 115.00000000000001 53.04 L 0 53.04 L 0 1.04 L 115.00000000000001 1.04" stroke-miterlimit="10" stroke-width="2"/></g></g></g></g></g><g transform="translate(0,0) matrix(1,0,0,1,169.5,240)"><g><g transform="translate(0,0) scale(0.9615384615384616,1)"><g><g transform="scale(1.04,1)"><path fill="#d9ead3" stroke="#333333" d="M 0 52 L 5.096153846153846 52 L 24.03846153846154 26 L 5.096153846153846 0 L 0 0" stroke-miterlimit="3" stroke-width="2"/></g></g></g></g></g><g transform="matrix(1,0,0,1,65,259)"><g><g><rect fill="rgb(0,0,0)" stroke="none" x="0" y="0" width="104" height="20" fill-opacity="0"/></g></g><g><g><rect fill="rgb(0,0,0)" stroke="none" x="0" y="0" width="104" height="14" fill-opacity="0"/></g></g><g><g><rect fill="rgb(0,0,0)" stroke="none" x="0" y="0" width="59" height="14" fill-opacity="0"/></g><text fill="rgb(0, 0, 0)" stroke="none" font-family="&quot;Arial&quot;" font-size="12px" font-style="normal" font-weight="normal" text-decoration="" line-height="14px" x="0" y="12">ID</text><text fill="rgb(0, 0, 0)" stroke="none" font-family="&quot;Arial&quot;" font-size="12px" font-style="normal" font-weight="normal" text-decoration="" line-height="14px" x="15.333328247070312" y="12">provider</text></g><g><g/></g><g><g/></g><g><g/></g></g><g transform="translate(0,0) matrix(1,0,0,1,224.5,240)"><g><g transform="translate(0,0) scale(1.4,0.52)"><g><path fill="rgb(0,0,0)" stroke="none" d="M 0 0 L 100 0 Q 100 0 100 0 L 100 100 Q 100 100 100 100 L 0 100 Q 0 100 0 100 L 0 0 Q 0 0 0 0 Z" fill-opacity="0"/><g transform="scale(0.7142857142857143,1.923076923076923)"><path fill="none" stroke="rbga(0,0,0,0)" d="M 0 0 L 140 0 Q 140 0 140 0 L 140 52 Q 140 52 140 52 L 0 52 Q 0 52 0 52 L 0 0 Q 0 0 0 0 Z" stroke-miterlimit="10" stroke-width="2"/></g></g></g></g></g><g transform="translate(0,0) matrix(1,0,0,1,224.5,240)"><g><g transform="translate(0,0) scale(1.5333333333333334,1.04) translate(0,-1)"><g><g transform="scale(0.6521739130434783,0.9615384615384615)"><path fill="#d9ead3" stroke="#333333" d="M 115.00000000000001 53.04 L 0 53.04 L 0 1.04 L 115.00000000000001 1.04" stroke-miterlimit="10" stroke-width="2"/></g></g></g></g></g><g transform="translate(0,0) matrix(1,0,0,1,339.5,240)"><g><g transform="translate(0,0) scale(0.9615384615384616,1)"><g><g transform="scale(1.04,1)"><path fill="#d9ead3" stroke="#333333" d="M 0 52 L 5.096153846153846 52 L 24.03846153846154 26 L 5.096153846153846 0 L 0 0" stroke-miterlimit="3" stroke-width="2"/></g></g></g></g></g><g transform="matrix(1,0,0,1,235,259)"><g><g><rect fill="rgb(0,0,0)" stroke="none" x="0" y="0" width="104" height="20" fill-opacity="0"/></g></g><g><g><rect fill="rgb(0,0,0)" stroke="none" x="0" y="0" width="104" height="14" fill-opacity="0"/></g></g><g><g><rect fill="rgb(0,0,0)" stroke="none" x="0" y="0" width="70" height="14" fill-opacity="0"/></g><text fill="rgb(0, 0, 0)" stroke="none" font-family="&quot;Arial&quot;" font-size="12px" font-style="normal" font-weight="normal" text-decoration="" line-height="14px" x="0" y="12">Error</text><text fill="rgb(0, 0, 0)" stroke="none" font-family="&quot;Arial&quot;" font-size="12px" font-style="normal" font-weight="normal" text-decoration="" line-height="14px" x="30" y="12">handler</text></g><g><g/></g><g><g/></g><g><g/></g></g><g transform="translate(0,0) matrix(1,0,0,1,394.5,240)"><g><g transform="translate(0,0) scale(1.4,0.52)"><g><path fill="rgb(0,0,0)" stroke="none" d="M 0 0 L 100 0 Q 100 0 100 0 L 100 100 Q 100 100 100 100 L 0 100 Q 0 100 0 100 L 0 0 Q 0 0 0 0 Z" fill-opacity="0"/><g transform="scale(0.7142857142857143,1.923076923076923)"><path fill="none" stroke="rbga(0,0,0,0)" d="M 0 0 L 140 0 Q 140 0 140 0 L 140 52 Q 140 52 140 52 L 0 52 Q 0 52 0 52 L 0 0 Q 0 0 0 0 Z" stroke-miterlimit="10" stroke-width="2"/></g></g></g></g></g><g transform="translate(0,0) matrix(1,0,0,1,394.5,240)"><g><g transform="translate(0,0) scale(1.5333333333333334,1.04) translate(0,-1)"><g><g transform="scale(0.6521739130434783,0.9615384615384615)"><path fill="#d9ead3" stroke="#333333" d="M 115.00000000000001 53.04 L 0 53.04 L 0 1.04 L 115.00000000000001 1.04" stroke-miterlimit="10" stroke-width="2"/></g></g></g></g></g><g transform="translate(0,0) matrix(1,0,0,1,509.5,240)"><g><g transform="translate(0,0) scale(0.9615384615384616,1)"><g><g transform="scale(1.04,1)"><path fill="#d9ead3" stroke="#333333" d="M 0 52 L 5.096153846153846 52 L 24.03846153846154 26 L 5.096153846153846 0 L 0 0" stroke-miterlimit="3" stroke-width="2"/></g></g></g></g></g><g transform="matrix(1,0,0,1,405,252)"><g><g><rect fill="rgb(0,0,0)" stroke="none" x="0" y="0" width="104" height="34" fill-opacity="0"/></g></g><g><g><rect fill="rgb(0,0,0)" stroke="none" x="0" y="0" width="104" height="28" fill-opacity="0"/></g></g><g><g><rect fill="rgb(0,0,0)" stroke="none" x="0" y="0" width="78" height="28" fill-opacity="0"/></g><text fill="rgb(0, 0, 0)" stroke="none" font-family="&quot;Arial&quot;" font-size="12px" font-style="normal" font-weight="normal" text-decoration="" line-height="14px" x="0" y="12">Java</text><text fill="rgb(0, 0, 0)" stroke="none" font-family="&quot;Arial&quot;" font-size="12px" font-style="normal" font-weight="normal" text-decoration="" line-height="14px" x="28.666671752929688" y="12">response</text><text fill="rgb(0, 0, 0)" stroke="none" font-family="&quot;Arial&quot;" font-size="12px" font-style="normal" font-weight="normal" text-decoration="" line-height="14px" x="0" y="26">filters</text></g><g><g/></g><g><g/></g><g><g/></g></g><g transform="translate(0,0) matrix(1,0,0,1,564.5,240)"><g><g transform="translate(0,0) scale(1.4,0.52)"><g><path fill="rgb(0,0,0)" stroke="none" d="M 0 0 L 100 0 Q 100 0 100 0 L 100 100 Q 100 100 100 100 L 0 100 Q 0 100 0 100 L 0 0 Q 0 0 0 0 Z" fill-opacity="0"/><g transform="scale(0.7142857142857143,1.923076923076923)"><path fill="none" stroke="rbga(0,0,0,0)" d="M 0 0 L 140 0 Q 140 0 140 0 L 140 52 Q 140 52 140 52 L 0 52 Q 0 52 0 52 L 0 0 Q 0 0 0 0 Z" stroke-miterlimit="10" stroke-width="2"/></g></g></g></g></g><g transform="translate(0,0) matrix(1,0,0,1,564.5,240)"><g><g transform="translate(0,0) scale(1.5333333333333334,1.04) translate(0,-1)"><g><g transform="scale(0.6521739130434783,0.9615384615384615)"><path fill="#fff2cc" stroke="#333333" d="M 115.00000000000001 53.04 L 0 53.04 L 0 1.04 L 115.00000000000001 1.04" stroke-miterlimit="10" stroke-width="2"/></g></g></g></g></g><g transform="translate(0,0) matrix(1,0,0,1,679.5,240)"><g><g transform="translate(0,0) scale(0.9615384615384616,1)"><g><g transform="scale(1.04,1)"><path fill="#fff2cc" stroke="#333333" d="M 0 52 L 5.096153846153846 52 L 24.03846153846154 26 L 5.096153846153846 0 L 0 0" stroke-miterlimit="3" stroke-width="2"/></g></g></g></g></g><g transform="matrix(1,0,0,1,575,252)"><g><g><rect fill="rgb(0,0,0)" stroke="none" x="0" y="0" width="104" height="34" fill-opacity="0"/></g></g><g><g><rect fill="rgb(0,0,0)" stroke="none" x="0" y="0" width="104" height="28" fill-opacity="0"/></g></g><g><g><rect fill="rgb(0,0,0)" stroke="none" x="0" y="0" width="77" height="28" fill-opacity="0"/></g><text fill="rgb(0, 0, 0)" stroke="none" font-family="&quot;Arial&quot;" font-size="12px" font-style="normal" font-weight="normal" text-decoration="" line-height="14px" x="0" y="12">Standard</text><text fill="rgb(0, 0, 0)" stroke="none" font-family="&quot;Arial&quot;" font-size="12px" font-style="normal" font-weight="normal" text-decoration="" line-height="14px" x="52" y="12">error</text><text fill="rgb(0, 0, 0)" stroke="none" font-family="&quot;Arial&quot;" font-size="12px" font-style="normal" font-weight="normal" text-decoration="" line-height="14px" x="0" y="26">handler</text></g><g><g/></g><g><g/></g><g><g/></g></g><g transform="matrix(1,0,0,1,320,41.5)"><g transform="translate(0,0)"><g transform="translate(-302.5,-50) translate(-17.5,8.5) matrix(1,0,0,1,0,0)"><g><path fill="none" stroke="#333333" d="M 324.5 46 L 334.5 46 L 344.5 46 L 354.5 46" stroke-miterlimit="10" stroke-width="2"/></g></g></g></g><g transform="matrix(1,0,0,1,490,41.5)"><g transform="translate(0,0)"><g transform="translate(-473.5,-41) translate(-16.5,-0.5) matrix(1,0,0,1,0,0)"><g><path fill="none" stroke="#333333" d="M 494.5 46 L 504.5 46 L 514.5 46 L 524.5 46" stroke-miterlimit="10" stroke-width="2"/></g></g></g></g><g transform="matrix(1,0,0,1,190,261.5)"><g transform="translate(0,0)"><g transform="translate(-229.5,-264) translate(39.5,2.5) matrix(1,0,0,1,0,0)"><g><path fill="none" stroke="#333333" d="M 194.5 266 L 204.5 266 L 214.5 266 L 224.5 266" stroke-miterlimit="10" stroke-width="2"/></g></g></g></g><g transform="matrix(1,0,0,1,360,261.5)"><g transform="translate(0,0)"><g transform="translate(-399.5,-265) translate(39.5,3.5) matrix(1,0,0,1,0,0)"><g><path fill="none" stroke="#333333" d="M 364.5 266 L 374.5 266 L 384.5 266 L 394.5 266" stroke-miterlimit="10" stroke-width="2"/></g></g></g></g><g transform="matrix(1,0,0,1,530,261.5)"><g transform="translate(0,0)"><g transform="translate(-568.5,-264) translate(38.5,2.5) matrix(1,0,0,1,0,0)"><g><path fill="none" stroke="#333333" d="M 534.5 266 L 544.5 266 L 554.5 266 L 564.5 266" stroke-miterlimit="10" stroke-width="2"/></g></g></g></g><g transform="translate(0,0) matrix(1,0,0,1,694.5,20)"><g><g transform="translate(0,0) scale(1.4,0.52)"><g><path fill="rgb(0,0,0)" stroke="none" d="M 0 0 L 100 0 Q 100 0 100 0 L 100 100 Q 100 100 100 100 L 0 100 Q 0 100 0 100 L 0 0 Q 0 0 0 0 Z" fill-opacity="0"/><g transform="scale(0.7142857142857143,1.923076923076923)"><path fill="none" stroke="rbga(0,0,0,0)" d="M 0 0 L 140 0 Q 140 0 140 0 L 140 52 Q 140 52 140 52 L 0 52 Q 0 52 0 52 L 0 0 Q 0 0 0 0 Z" stroke-miterlimit="10" stroke-width="2"/></g></g></g></g></g><g transform="translate(0,0) matrix(1,0,0,1,694.5,20)"><g><g transform="translate(0,0) scale(1.5333333333333334,1.04) translate(0,-1)"><g><g transform="scale(0.6521739130434783,0.9615384615384615)"><path fill="#d9ead3" stroke="#333333" d="M 115.00000000000001 53.04 L 0 53.04 L 0 1.04 L 115.00000000000001 1.04" stroke-miterlimit="10" stroke-width="2"/></g></g></g></g></g><g transform="translate(0,0) matrix(1,0,0,1,809.5,20)"><g><g transform="translate(0,0) scale(0.9615384615384616,1)"><g><g transform="scale(1.04,1)"><path fill="#d9ead3" stroke="#333333" d="M 0 52 L 5.096153846153846 52 L 24.03846153846154 26 L 5.096153846153846 0 L 0 0" stroke-miterlimit="3" stroke-width="2"/></g></g></g></g></g><g transform="matrix(1,0,0,1,705,32)"><g><g><rect fill="rgb(0,0,0)" stroke="none" x="0" y="0" width="104" height="34" fill-opacity="0"/></g></g><g><g><rect fill="rgb(0,0,0)" stroke="none" x="0" y="0" width="104" height="14" fill-opacity="0"/></g></g><g><g><rect fill="rgb(0,0,0)" stroke="none" x="0" y="0" width="31" height="14" fill-opacity="0"/></g><text fill="rgb(0, 0, 0)" stroke="none" font-family="&quot;Arial&quot;" font-size="12px" font-style="normal" font-weight="normal" text-decoration="" line-height="14px" x="0" y="12">HTTP</text></g><g><g><rect fill="rgb(0,0,0)" stroke="none" x="0" y="14" width="104" height="14" fill-opacity="0"/></g></g><g><g><rect fill="rgb(0,0,0)" stroke="none" x="0" y="14" width="44" height="14" fill-opacity="0"/></g><text fill="rgb(0, 0, 0)" stroke="none" font-family="&quot;Arial&quot;" font-size="12px" font-style="normal" font-weight="normal" text-decoration="" line-height="14px" x="0" y="26">services</text></g><g><g/></g><g><g/></g><g><g/></g><g><g/></g></g><g transform="translate(0,0) matrix(1,0,0,1,150,130)"><g><g transform="translate(0,0) scale(5.4,0.52)"><g><path fill="rgb(0,0,0)" stroke="none" d="M 0 0 L 100 0 Q 100 0 100 0 L 100 100 Q 100 100 100 100 L 0 100 Q 0 100 0 100 L 0 0 Q 0 0 0 0 Z" fill-opacity="0"/><g transform="scale(0.18518518518518517,1.923076923076923)"><path fill="none" stroke="rbga(0,0,0,0)" d="M 0 0 L 540 0 Q 540 0 540 0 L 540 52 Q 540 52 540 52 L 0 52 Q 0 52 0 52 L 0 0 Q 0 0 0 0 Z" stroke-miterlimit="10" stroke-width="2"/></g></g></g></g></g><g transform="translate(0,0) matrix(1,0,0,1,150,130)"><g><g transform="translate(0,0) scale(6.866666666666666,1.04) translate(0,-1)"><g><g transform="scale(0.14563106796116507,0.9615384615384615)"><path fill="#c9daf8" stroke="#333333" d="M 515 53.04 L 0 53.04 L 0 1.04 L 515 1.04" stroke-miterlimit="10" stroke-width="2"/></g></g></g></g></g><g transform="translate(0,0) matrix(1,0,0,1,665,130)"><g><g transform="translate(0,0) scale(0.9615384615384616,1)"><g><g transform="scale(1.04,1)"><path fill="#c9daf8" stroke="#333333" d="M 0 52 L 5.096153846153846 52 L 24.03846153846154 26 L 5.096153846153846 0 L 0 0" stroke-miterlimit="3" stroke-width="2"/></g></g></g></g></g><g transform="matrix(1,0,0,1,160,149)"><g><g><rect fill="rgb(0,0,0)" stroke="none" x="0" y="0" width="504" height="20" fill-opacity="0"/></g></g><g><g><rect fill="rgb(0,0,0)" stroke="none" x="0" y="0" width="504" height="14" fill-opacity="0"/></g></g><g><g><rect fill="rgb(0,0,0)" stroke="none" x="193.64999389648438" y="0" width="117" height="14" fill-opacity="0"/></g><text fill="rgb(0, 0, 0)" stroke="none" font-family="&quot;Arial&quot;" font-size="12px" font-style="normal" font-weight="normal" text-decoration="" line-height="14px" x="193.64999389648438" y="12">HTTP</text><text fill="rgb(0, 0, 0)" stroke="none" font-family="&quot;Arial&quot;" font-size="12px" font-style="normal" font-weight="normal" text-decoration="" line-height="14px" x="228.31666564941406" y="12">Engine</text><text fill="rgb(0, 0, 0)" stroke="none" font-family="&quot;Arial&quot;" font-size="12px" font-style="normal" font-weight="normal" text-decoration="" line-height="14px" x="268.98333740234375" y="12">pipeline</text></g><g><g/></g><g><g/></g><g><g/></g><g><g/></g></g><g transform="matrix(1,0,0,1,660,41.5)"><g transform="translate(0,0)"><g transform="translate(-397.5,-46) translate(-262.5,4.5) matrix(1,0,0,1,0,0)"><g><path fill="none" stroke="#333333" d="M 664.5 46 L 674.5 46 L 684.5 46 L 694.5 46" stroke-miterlimit="10" stroke-width="2"/></g></g></g></g><g transform="matrix(1,0,0,1,105.5,41.5)"><g transform="translate(0,0)"><g transform="translate(-503.5,-135) translate(398,93.5) matrix(1,0,0,1,0,0)"><g><path fill="none" stroke="#333333" d="M 834.5 46 Q 874.5 46 874.5 73.5 Q 874.5 101 492.25 101 Q 110 101 110 128.5 Q 110 156 150 156" stroke-miterlimit="10" stroke-width="2"/></g></g></g></g><g transform="translate(0,0) matrix(1,0,0,1,20,20)"><g><g transform="translate(0,0) scale(1.4,0.52)"><g><path fill="rgb(0,0,0)" stroke="none" d="M 0 0 L 100 0 Q 100 0 100 0 L 100 100 Q 100 100 100 100 L 0 100 Q 0 100 0 100 L 0 0 Q 0 0 0 0 Z" fill-opacity="0"/><g transform="scale(0.7142857142857143,1.923076923076923)"><path fill="none" stroke="rbga(0,0,0,0)" d="M 0 0 L 140 0 Q 140 0 140 0 L 140 52 Q 140 52 140 52 L 0 52 Q 0 52 0 52 L 0 0 Q 0 0 0 0 Z" stroke-miterlimit="10" stroke-width="2"/></g></g></g></g></g><g transform="translate(0,0) matrix(1,0,0,1,20,20)"><g><g transform="translate(0,0) scale(1.5333333333333334,1.04) translate(0,-1)"><g><g transform="scale(0.6521739130434783,0.9615384615384615)"><path fill="rgb(255,255,255)" stroke="#333333" d="M 115.00000000000001 53.04 L 0 53.04 L 0 1.04 L 115.00000000000001 1.04" fill-opacity="0.008" stroke-miterlimit="10" stroke-width="2"/></g></g></g></g></g><g transform="translate(0,0) matrix(1,0,0,1,135,20)"><g><g transform="translate(0,0) scale(0.9615384615384616,1)"><g><g transform="scale(1.04,1)"><path fill="rgb(255,255,255)" stroke="#333333" d="M 0 52 L 5.096153846153846 52 L 24.03846153846154 26 L 5.096153846153846 0 L 0 0" fill-opacity="0.008" stroke-miterlimit="3" stroke-width="2"/></g></g></g></g></g><g transform="matrix(1,0,0,1,30,39)"><g><g><rect fill="rgb(0,0,0)" stroke="none" x="0" y="0" width="104" height="20" fill-opacity="0"/></g></g><g><g><rect fill="rgb(0,0,0)" stroke="none" x="0" y="0" width="104" height="14" fill-opacity="0"/></g></g><g><g><rect fill="rgb(0,0,0)" stroke="none" x="0" y="0" width="79" height="14" fill-opacity="0"/></g><text fill="rgb(0, 0, 0)" stroke="none" font-family="&quot;Arial&quot;" font-size="12px" font-style="normal" font-weight="normal" text-decoration="" line-height="14px" x="0" y="12">HTTP</text><text fill="rgb(0, 0, 0)" stroke="none" font-family="&quot;Arial&quot;" font-size="12px" font-style="normal" font-weight="normal" text-decoration="" line-height="14px" x="34.66667175292969" y="12">Request</text></g><g><g/></g><g><g/></g><g><g/></g></g><g transform="translate(0,0) matrix(1,0,0,1,730,240)"><g><g transform="translate(0,0) scale(1.4,0.52)"><g><path fill="rgb(0,0,0)" stroke="none" d="M 0 0 L 100 0 Q 100 0 100 0 L 100 100 Q 100 100 100 100 L 0 100 Q 0 100 0 100 L 0 0 Q 0 0 0 0 Z" fill-opacity="0"/><g transform="scale(0.7142857142857143,1.923076923076923)"><path fill="none" stroke="rbga(0,0,0,0)" d="M 0 0 L 140 0 Q 140 0 140 0 L 140 52 Q 140 52 140 52 L 0 52 Q 0 52 0 52 L 0 0 Q 0 0 0 0 Z" stroke-miterlimit="10" stroke-width="2"/></g></g></g></g></g><g transform="translate(0,0) matrix(1,0,0,1,730,240)"><g><g transform="translate(0,0) scale(1.5333333333333334,1.04) translate(0,-1)"><g><g transform="scale(0.6521739130434783,0.9615384615384615)"><path fill="rgb(255,255,255)" stroke="#333333" d="M 115.00000000000001 53.04 L 0 53.04 L 0 1.04 L 115.00000000000001 1.04" fill-opacity="0.008" stroke-miterlimit="10" stroke-width="2"/></g></g></g></g></g><g transform="translate(0,0) matrix(1,0,0,1,845,240)"><g><g transform="translate(0,0) scale(0.9615384615384616,1)"><g><g transform="scale(1.04,1)"><path fill="rgb(255,255,255)" stroke="#333333" d="M 0 52 L 5.096153846153846 52 L 24.03846153846154 26 L 5.096153846153846 0 L 0 0" fill-opacity="0.008" stroke-miterlimit="3" stroke-width="2"/></g></g></g></g></g><g transform="matrix(1,0,0,1,740,259)"><g><g><rect fill="rgb(0,0,0)" stroke="none" x="0" y="0" width="104" height="20" fill-opacity="0"/></g></g><g><g><rect fill="rgb(0,0,0)" stroke="none" x="0" y="0" width="104" height="14" fill-opacity="0"/></g></g><g><g><rect fill="rgb(0,0,0)" stroke="none" x="0" y="0" width="89" height="14" fill-opacity="0"/></g><text fill="rgb(0, 0, 0)" stroke="none" font-family="&quot;Arial&quot;" font-size="12px" font-style="normal" font-weight="normal" text-decoration="" line-height="14px" x="0" y="12">HTTP</text><text fill="rgb(0, 0, 0)" stroke="none" font-family="&quot;Arial&quot;" font-size="12px" font-style="normal" font-weight="normal" text-decoration="" line-height="14px" x="34.66667175292969" y="12">Response</text></g><g><g/></g><g><g/></g><g><g/></g></g><g transform="matrix(1,0,0,1,155.5,41.5)"><g transform="translate(0,0)"><g transform="translate(-150,-48) translate(-5.5,6.5) matrix(1,0,0,1,0,0)"><g><path fill="none" stroke="#000000" d="M 160 46 L 164.08333333333331 46 Q 168.16666666666666 46 172.25 46 L 172.25 46 Q 176.33333333333334 46 180.41666666666669 46 L 184.5 46" stroke-miterlimit="10" stroke-width="2"/></g></g></g></g><g transform="matrix(1,0,0,1,700,261.5)"><g transform="translate(0,0)"><g transform="translate(-705,-268) translate(5,6.5) matrix(1,0,0,1,0,0)"><g><path fill="none" stroke="#000000" d="M 704.5 266 L 708.75 266 Q 713 266 717.25 266 L 717.25 266 Q 721.5 266 725.75 266 L 730 266" stroke-miterlimit="10" stroke-width="2"/></g></g></g></g></g></svg>