<?xml version="1.0" encoding="UTF-8"?>
<svg width="768px" height="367px" viewBox="0 0 768 367" version="1.1" xmlns="http://www.w3.org/2000/svg" xmlns:xlink="http://www.w3.org/1999/xlink">
    <!-- Generator: Sketch 61 (89581) - https://sketch.com -->
    <title>idprovider-pipeline</title>
    <desc>Created with Sketch.</desc>
    <g id="idprovider-pipeline" stroke="none" stroke-width="1" fill="none" fill-rule="evenodd">
        <path d="M137.5,23.9950358 L137.5,293.004964 C137.5,297.145514 140.856818,300.5 144.999292,300.5 L631.000708,300.5 C635.145425,300.5 638.5,297.145902 638.5,293.004964 L638.5,23.9950358 C638.5,19.854486 635.143182,16.5 631.000708,16.5 L144.999292,16.5 C140.854575,16.5 137.5,19.8540984 137.5,23.9950358 Z" id="Rectangle-Copy" stroke="#979797" fill="#FFFFFF"></path>
        <path d="M485.45144,92 C485.45144,92 456.868338,92 499.115562,92 C528.119338,92 521.481756,134.841828 522.416223,143.554068 C526.438281,181.052579 554,173.346068 554,173.346068" id="Line-Copy" stroke="#979797" stroke-linecap="square" transform="translate(515.000000, 133.000000) scale(-1, 1) translate(-515.000000, -133.000000) "></path>
        <path d="M-182.5,25.0047607 L-182.5,130.995239 C-182.5,135.139264 -179.142679,138.5 -175.002472,138.5 L108.002472,138.5 C112.14391,138.5 115.5,135.140529 115.5,130.995239 L115.5,25.0047607 C115.5,20.8607355 112.142679,17.5 108.002472,17.5 L-175.002472,17.5 C-179.14391,17.5 -182.5,20.8594712 -182.5,25.0047607 Z" id="Rectangle-Copy-2" stroke="#979797" fill="#FFFFFF"></path>
        <rect id="Rectangle-Copy-3" stroke="#979797" fill="#FFE6E6" x="282.5" y="64.5" width="203" height="53" rx="8"></rect>
        <path d="M283.5,151.996941 L283.5,190.003059 C283.5,194.140564 286.858156,197.5 290.997042,197.5 L479.002958,197.5 C483.141158,197.5 486.5,194.142236 486.5,190.003059 L486.5,151.996941 C486.5,147.859436 483.141844,144.5 479.002958,144.5 L290.997042,144.5 C286.858842,144.5 283.5,147.857764 283.5,151.996941 Z" id="Rectangle-Copy-4" stroke="#979797" fill="#FFE6E6"></path>
        <text id="Login-endpoint:-_/id" font-family="GTPressura, GT Pressura" font-size="14" font-weight="normal" fill="#000000">
            <tspan x="341.075" y="87">Login endpoint:</tspan>
            <tspan x="306.292" y="105">_/idprovider/&lt;name&gt;/login</tspan>
        </text>
        <text id="Logout-endpoint:-_/i" font-family="GTPressura, GT Pressura" font-size="14" font-weight="normal" fill="#000000">
            <tspan x="337.165" y="168">Logout endpoint:</tspan>
            <tspan x="302.382" y="186">_/idprovider/&lt;name&gt;/logout</tspan>
        </text>
        <path d="M282.5,231.996941 L282.5,270.003059 C282.5,274.140564 285.858156,277.5 289.997042,277.5 L478.002958,277.5 C482.141158,277.5 485.5,274.142236 485.5,270.003059 L485.5,231.996941 C485.5,227.859436 482.141844,224.5 478.002958,224.5 L289.997042,224.5 C285.858842,224.5 282.5,227.857764 282.5,231.996941 Z" id="Rectangle-Copy-4" stroke="#979797" fill="#FFE6E6"></path>
        <text id="ID-provider-controll" font-family="GTPressura, GT Pressura" font-size="14" font-weight="normal" fill="#000000">
            <tspan x="329.098" y="248">ID provider controller </tspan>
            <tspan x="321.027" y="266">_/idprovider/&lt;name&gt;/*</tspan>
        </text>
        <path id="Line-Copy-2" d="M232.231512,94.5 C245.294363,94.5 251.600065,103.832896 253.363878,119.871303 C253.912719,124.861937 253.986288,129.310683 253.83634,136.557173 C253.747085,140.87057 253.738238,142.072342 253.839197,143.171103 L253.857586,143.359015 C255.729861,161.435211 263.147265,169.724454 273.478912,171.25625 L273.257691,167.376948 L282.49919,171.357488 L273.769858,176.362363 L273.536283,172.2748 C262.636749,170.754111 254.793372,162.10004 252.862907,143.46204 C252.73633,142.239987 252.740798,141.164025 252.836554,136.536485 C252.985652,129.331055 252.912642,124.916053 252.369871,119.980618 C250.671946,104.541333 244.771092,95.6783786 232.602188,95.5026634 L232.231512,95.5 L115.5,95.5 L115.5,94.5 L232.231512,94.5 Z" fill="#979797" fill-rule="nonzero"></path>
        <path id="Line-Copy-2" d="M185.273739,94.5 L232.231512,94.5 C239.953246,94.5 245.410511,98.3161224 248.922355,105.412054 C251.805559,111.237773 253.317987,119.05149 253.879999,129.000067 C254.166152,134.065474 254.196641,138.385668 254.106134,146.50554 C254.037284,152.682451 254.038162,154.751427 254.157626,157.08838 C254.453308,162.872532 254.592528,167.824729 254.832609,179.203417 C254.833266,179.234525 254.833266,179.234525 254.833922,179.265633 C255.389738,205.608391 256.047797,216.028741 258.37687,223.87053 C262.144156,236.554661 267.55974,243.981645 273.817788,247.373945 L274.601411,243.626407 L282.489408,249.873766 L272.758722,252.435748 L273.604575,248.393327 C266.982824,244.929421 261.307798,237.250994 257.418258,224.155246 C255.075031,216.265804 254.405947,205.963019 253.85093,180.075968 L253.834145,179.286728 L253.832832,179.224511 C253.592969,167.856182 253.453918,162.910025 253.15893,157.139433 C253.037946,154.772746 253.037065,152.696528 253.106197,146.494394 C253.196461,138.396298 253.166088,134.092556 252.881591,129.056469 C251.656249,107.365817 245.783743,95.5 232.231512,95.5 L231.589442,95.5 L231.589442,95.5 L184.498029,95.5 L183.772158,95.5 L183.772158,95.5 L115.5,95.5 L115.5,94.5 L145.396526,94.5 L145.396526,94.5 L184.498029,94.5 L185.273739,94.5 L185.273739,94.5 Z" fill="#979797" fill-rule="nonzero"></path>
        <text id="ID-provider-service" font-family="GTPressura-Bold, GT Pressura" font-size="14" font-weight="bold" fill="#000000">
            <tspan x="332.182" y="45">ID provider service</tspan>
        </text>
        <text id="Common-pipeline-Copy" font-family="GTPressura-Bold, GT Pressura" font-size="14" font-weight="bold" fill="#000000">
            <tspan x="32.464" y="49">Common</tspan>
            <tspan x="34.956" y="68">pipeline</tspan>
        </text>
        <path d="M659.5,24.0047607 L659.5,129.995239 C659.5,134.139264 662.857321,137.5 666.997528,137.5 L950.002472,137.5 C954.14391,137.5 957.5,134.140529 957.5,129.995239 L957.5,24.0047607 C957.5,19.8607355 954.142679,16.5 950.002472,16.5 L666.997528,16.5 C662.85609,16.5 659.5,19.8594712 659.5,24.0047607 Z" id="Rectangle-Copy-5" stroke="#979797" fill="#FFFFFF"></path>
        <text id="Common-pipeline" font-family="GTPressura-Bold, GT Pressura" font-size="14" font-weight="bold" fill="#000000">
            <tspan x="690.464" y="48">Common</tspan>
            <tspan x="692.956" y="67">pipeline</tspan>
        </text>
        <text id="Both" font-family="GTPressura, GT Pressura" font-size="14" font-weight="normal" fill="#000000">
            <tspan x="544.015" y="338">Both</tspan>
        </text>
        <path d="M201.5,327.995275 L201.5,338.004725 C201.5,342.138958 204.857116,345.5 208.991652,345.5 L217.008348,345.5 C221.144473,345.5 224.5,342.143559 224.5,338.004725 L224.5,327.995275 C224.5,323.861042 221.142884,320.5 217.008348,320.5 L208.991652,320.5 C204.855527,320.5 201.5,323.856441 201.5,327.995275 Z" id="Rectangle-Copy-6" stroke="#979797" fill="#DAFFB5"></path>
        <path d="M507.5,327.995275 L507.5,338.004725 C507.5,342.138958 510.857116,345.5 514.991652,345.5 L523.008348,345.5 C527.144473,345.5 530.5,342.143559 530.5,338.004725 L530.5,327.995275 C530.5,323.861042 527.142884,320.5 523.008348,320.5 L514.991652,320.5 C510.855527,320.5 507.5,323.856441 507.5,327.995275 Z" id="Rectangle-Copy-7" stroke="#979797" fill="#FFE6E6"></path>
        <path d="M348.5,328.995275 L348.5,339.004725 C348.5,343.138958 351.857116,346.5 355.991652,346.5 L364.008348,346.5 C368.144473,346.5 371.5,343.143559 371.5,339.004725 L371.5,328.995275 C371.5,324.861042 368.142884,321.5 364.008348,321.5 L355.991652,321.5 C351.855527,321.5 348.5,324.856441 348.5,328.995275 Z" id="Rectangle" stroke="#979797" fill="#C6DDFF"></path>
        <text id="Configurable" font-family="GTPressura, GT Pressura" font-size="14" font-weight="normal" fill="#000000">
            <tspan x="236.174" y="338">Configurable</tspan>
        </text>
        <text id="Programmable" font-family="GTPressura, GT Pressura" font-size="14" font-weight="normal" fill="#000000">
            <tspan x="385.176" y="338">Programmable</tspan>
        </text>
        <path id="Line-Copy-3" d="M273,90 L282,94.5 L273,99 L272.999,95 L56.5668351,95 L56.5668351,94 L272.999,94 L273,90 Z" fill="#9B9B9B" fill-rule="nonzero"></path>
        <path id="Line" d="M706.566835,87 L715.566835,91.5 L706.566835,96 L706.566,92 L485,92 L485,91 L706.566,91 L706.566835,87 Z" fill="#9B9B9B" fill-rule="nonzero"></path>
    </g>
</svg>