<?xml version="1.0" encoding="UTF-8"?>
<svg width="768px" height="460px" viewBox="0 0 768 460" version="1.1" xmlns="http://www.w3.org/2000/svg" xmlns:xlink="http://www.w3.org/1999/xlink">
    <!-- Generator: Sketch 43.2 (39069) - http://www.bohemiancoding.com/sketch -->
    <title>site-pipeline</title>
    <desc>Created with Sketch.</desc>
    <defs>
        <rect id="path-1" x="105" y="17" width="558" height="379" rx="8"></rect>
        <rect id="path-2" x="-210" y="17" width="299" height="122" rx="8"></rect>
        <rect id="path-3" x="679" y="158" width="299" height="122" rx="8"></rect>
        <rect id="path-4" x="143" y="65" width="102" height="54" rx="8"></rect>
        <rect id="path-5" x="269" y="65" width="88" height="54" rx="8"></rect>
        <rect id="path-6" x="381" y="65" width="105" height="54" rx="8"></rect>
        <rect id="path-7" x="509" y="65" width="105" height="54" rx="8"></rect>
        <rect id="path-8" x="169" y="165" width="105" height="54" rx="8"></rect>
        <rect id="path-9" x="297" y="165" width="95" height="54" rx="8"></rect>
        <rect id="path-10" x="416" y="165" width="105" height="54" rx="8"></rect>
        <rect id="path-11" x="545" y="165" width="88" height="54" rx="8"></rect>
        <rect id="path-12" x="200" y="414" width="24" height="26" rx="8"></rect>
        <rect id="path-13" x="506" y="414" width="24" height="26" rx="8"></rect>
        <rect id="path-14" x="347" y="415" width="24" height="26" rx="8"></rect>
        <rect id="path-15" x="206" y="244" width="355.464261" height="54" rx="8"></rect>
        <rect id="path-16" x="206" y="323.074305" width="355.464261" height="54" rx="8"></rect>
    </defs>
    <g id="Page-1" stroke="none" stroke-width="1" fill="none" fill-rule="evenodd">
        <g id="site-pipeline">
            <g id="Rectangle">
                <use fill="#FFFFFF" fill-rule="evenodd" xlink:href="#path-1"></use>
                <rect stroke="#979797" stroke-width="1" x="105.5" y="17.5" width="557" height="378" rx="8"></rect>
            </g>
            <g id="Rectangle">
                <use fill="#FFFFFF" fill-rule="evenodd" xlink:href="#path-2"></use>
                <rect stroke="#979797" stroke-width="1" x="-209.5" y="17.5" width="298" height="121" rx="8"></rect>
            </g>
            <path d="M14.3087366,92.5 L142.5,92.5" id="Line" stroke="#9B9B9B" fill="#9B9B9B" stroke-linecap="square"></path>
            <path id="Line-decoration-1" d="M142.5,92.5 L131.7,89.5 L131.7,95.5 L142.5,92.5 Z" stroke="#9B9B9B" fill="#9B9B9B" stroke-linecap="square"></path>
            <text id="Site-Engine" font-family="GTPressura-Bold, GT Pressura" font-size="14" font-weight="bold" fill="#000000">
                <tspan x="351.264" y="45">Site Engine</tspan>
            </text>
            <text id="Request-pipeline" font-family="GTPressura-Bold, GT Pressura" font-size="14" font-weight="bold" fill="#000000">
                <tspan x="19.147" y="49">Request</tspan>
                <tspan x="20.456" y="68">pipeline</tspan>
            </text>
            <g id="Rectangle">
                <use fill="#FFFFFF" fill-rule="evenodd" xlink:href="#path-3"></use>
                <rect stroke="#979797" stroke-width="1" x="679.5" y="158.5" width="298" height="121" rx="8"></rect>
            </g>
            <text id="Response-pipeline" font-family="GTPressura-Bold, GT Pressura" font-size="14" font-weight="bold" fill="#000000">
                <tspan x="698.045" y="228">Response</tspan>
                <tspan x="703.456" y="247">pipeline</tspan>
            </text>
            <path d="M619.484254,191.5 L746.509852,191.5" id="Line" stroke="#9B9B9B" fill="#9B9B9B" stroke-linecap="square"></path>
            <path id="Line-decoration-1" d="M746.509852,191.5 L735.709852,188.5 L735.709852,194.5 L746.509852,191.5 Z" stroke="#9B9B9B" fill="#9B9B9B" stroke-linecap="square"></path>
            <g id="Rectangle">
                <use fill="#C6DDFF" fill-rule="evenodd" xlink:href="#path-4"></use>
                <rect stroke="#979797" stroke-width="1" x="143.5" y="65.5" width="101" height="53" rx="8"></rect>
            </g>
            <g id="Rectangle">
                <use fill="#FFE6E6" fill-rule="evenodd" xlink:href="#path-5"></use>
                <rect stroke="#979797" stroke-width="1" x="269.5" y="65.5" width="87" height="53" rx="8"></rect>
            </g>
            <text id="Page-renderer" font-family="GTPressura, GT Pressura" font-size="14" font-weight="normal" fill="#000000">
                <tspan x="298.088" y="88">Page</tspan>
                <tspan x="287.161" y="106">renderer</tspan>
            </text>
            <path d="M245.5,92.5 L268.694827,92.5" id="Line" stroke="#9B9B9B" fill="#9B9B9B" stroke-linecap="square"></path>
            <path id="Line-decoration-1" d="M268.694827,92.5 L257.894827,89.5 L257.894827,95.5 L268.694827,92.5 Z" stroke="#9B9B9B" fill="#9B9B9B" stroke-linecap="square"></path>
            <g id="Rectangle">
                <use fill="#FFFFFF" fill-rule="evenodd" xlink:href="#path-6"></use>
                <rect stroke="#979797" stroke-width="1" x="381.5" y="65.5" width="104" height="53" rx="8"></rect>
            </g>
            <path d="M357.5,92.5 L380.694827,92.5" id="Line" stroke="#9B9B9B" fill="#9B9B9B" stroke-linecap="square"></path>
            <path id="Line-decoration-1" d="M380.694827,92.5 L369.894827,89.5 L369.894827,95.5 L380.694827,92.5 Z" stroke="#9B9B9B" fill="#9B9B9B" stroke-linecap="square"></path>
            <path d="M485.5,93.5 L508.694827,93.5" id="Line" stroke="#9B9B9B" fill="#9B9B9B" stroke-linecap="square"></path>
            <path id="Line-decoration-1" d="M508.694827,93.5 L497.894827,90.5 L497.894827,96.5 L508.694827,93.5 Z" stroke="#9B9B9B" fill="#9B9B9B" stroke-linecap="square"></path>
            <path d="M612.420608,90 C612.420608,90 641.590573,93.9743364 630.037429,127.500642 C611.91015,180.104565 182.306076,88.8345556 146.241449,159.469104 C133.061979,185.281817 182.306076,190.858042 182.306076,190.858042" id="Path-2" stroke="#979797"></path>
            <g id="Rectangle">
                <use fill="#C6DDFF" fill-rule="evenodd" xlink:href="#path-7"></use>
                <rect stroke="#979797" stroke-width="1" x="509.5" y="65.5" width="104" height="53" rx="8"></rect>
            </g>
            <text id="Post-processor" font-family="GTPressura, GT Pressura" font-size="14" font-weight="normal" fill="#000000">
                <tspan x="421.068" y="88">Post</tspan>
                <tspan x="405.129" y="106">processor</tspan>
            </text>
            <g id="Rectangle">
                <use fill="#C6DDFF" fill-rule="evenodd" xlink:href="#path-8"></use>
                <rect stroke="#979797" stroke-width="1" x="169.5" y="165.5" width="104" height="53" rx="8"></rect>
            </g>
            <text id="Contributions-filter" font-family="GTPressura, GT Pressura" font-size="14" font-weight="normal" fill="#000000">
                <tspan x="183.461" y="187">Contributions</tspan>
                <tspan x="208.794" y="205">filter</tspan>
            </text>
            <path d="M274.5,192.5 L297.694827,192.5" id="Line" stroke="#9B9B9B" fill="#9B9B9B" stroke-linecap="square"></path>
            <path id="Line-decoration-1" d="M297.694827,192.5 L286.894827,189.5 L286.894827,195.5 L297.694827,192.5 Z" stroke="#9B9B9B" fill="#9B9B9B" stroke-linecap="square"></path>
            <path d="M392.5,192.5 L415.694827,192.5" id="Line" stroke="#9B9B9B" fill="#9B9B9B" stroke-linecap="square"></path>
            <path id="Line-decoration-1" d="M415.694827,192.5 L404.894827,189.5 L404.894827,195.5 L415.694827,192.5 Z" stroke="#9B9B9B" fill="#9B9B9B" stroke-linecap="square"></path>
            <text id="Response-processors" font-family="GTPressura, GT Pressura" font-size="14" font-weight="normal" fill="#000000">
                <tspan x="534.567" y="89">Response</tspan>
                <tspan x="530.416" y="107">processors</tspan>
            </text>
            <text id="Site-mappings" font-family="GTPressura, GT Pressura" font-size="14" font-weight="normal" fill="#000000">
                <tspan x="183.856" y="88">Site</tspan>
                <tspan x="167.238" y="106">mappings</tspan>
            </text>
            <g id="Rectangle">
                <use fill="#C6DDFF" fill-rule="evenodd" xlink:href="#path-9"></use>
                <rect stroke="#979797" stroke-width="1" x="297.5" y="165.5" width="94" height="53" rx="8"></rect>
            </g>
            <text id="Site-filters" font-family="Helvetica" font-size="14" font-weight="normal" fill="#000000">
                <tspan x="333.937988" y="188">Site</tspan>
                <tspan x="329.275879" y="205">filters</tspan>
            </text>
            <g id="Rectangle-Copy-7">
                <use fill="#FFE6E6" fill-rule="evenodd" xlink:href="#path-10"></use>
                <rect stroke="#979797" stroke-width="1" x="416.5" y="165.5" width="104" height="53" rx="8"></rect>
            </g>
            <text id="handle401" font-family="GTPressura, GT Pressura" font-size="14" font-weight="normal" fill="#000000">
                <tspan x="440.251" y="196">handle401</tspan>
            </text>
            <g id="Rectangle-Copy-11">
                <use fill="#C6DDFF" fill-rule="evenodd" xlink:href="#path-11"></use>
                <rect stroke="#979797" stroke-width="1" x="545.5" y="165.5" width="87" height="53" rx="8"></rect>
            </g>
            <text id="Error-handler" font-family="GTPressura, GT Pressura" font-size="14" font-weight="normal" fill="#000000">
                <tspan x="575.154" y="187">Error</tspan>
                <tspan x="567.454" y="205">handler</tspan>
            </text>
            <path d="M521.5,191.5 L544.694827,191.5" id="Line-Copy-7" stroke="#9B9B9B" fill="#9B9B9B" stroke-linecap="square"></path>
            <path id="Line-Copy-7-decoration-1" d="M544.694827,191.5 L533.894827,188.5 L533.894827,194.5 L544.694827,191.5 Z" stroke="#9B9B9B" fill="#9B9B9B" stroke-linecap="square"></path>
            <text id="Both" font-family="GTPressura, GT Pressura" font-size="14" font-weight="normal" fill="#000000">
                <tspan x="543.015" y="432">Both</tspan>
            </text>
            <g id="Rectangle">
                <use fill="#DAFFB5" fill-rule="evenodd" xlink:href="#path-12"></use>
                <rect stroke="#979797" stroke-width="1" x="200.5" y="414.5" width="23" height="25" rx="8"></rect>
            </g>
            <g id="Rectangle">
                <use fill="#FFE6E6" fill-rule="evenodd" xlink:href="#path-13"></use>
                <rect stroke="#979797" stroke-width="1" x="506.5" y="414.5" width="23" height="25" rx="8"></rect>
            </g>
            <g id="Rectangle">
                <use fill="#C6DEFF" fill-rule="evenodd" xlink:href="#path-14"></use>
                <rect stroke="#979797" stroke-width="1" x="347.5" y="415.5" width="23" height="25" rx="8"></rect>
            </g>
            <text id="Configurable" font-family="GTPressura, GT Pressura" font-size="14" font-weight="normal" fill="#000000">
                <tspan x="235.174" y="432">Configurable</tspan>
            </text>
            <text id="Programmable" font-family="GTPressura, GT Pressura" font-size="14" font-weight="normal" fill="#000000">
                <tspan x="384.176" y="432">Programmable</tspan>
            </text>
            <g id="Rectangle">
                <use fill="#FFFFFF" fill-rule="evenodd" xlink:href="#path-15"></use>
                <rect stroke="#979797" stroke-width="1" x="206.5" y="244.5" width="354.464261" height="53" rx="8"></rect>
            </g>
            <text id="Image-service" font-family="GTPressura, GT Pressura" font-size="14" font-weight="normal" fill="#000000">
                <tspan x="367.767852" y="266">Image</tspan>
                <tspan x="364.330852" y="284">service</tspan>
            </text>
            <g id="Rectangle">
                <use fill="#FFFFFF" fill-rule="evenodd" xlink:href="#path-16"></use>
                <rect stroke="#979797" stroke-width="1" x="206.5" y="323.574305" width="354.464261" height="53" rx="8"></rect>
            </g>
            <text id="Component-service" font-family="GTPressura, GT Pressura" font-size="14" font-weight="normal" fill="#000000">
                <tspan x="352.220852" y="345.074305">Component</tspan>
                <tspan x="364.330852" y="363.074305">service</tspan>
            </text>
            <path d="M47.6497149,92.9008231 C47.6497149,92.9008231 63.0835545,92.3660246 101.392782,92.3660246 C145.1172,92.3660246 127.349513,172.783324 127.349513,196 C127.349513,280.91164 205.358525,272.870396 205.358525,272.870396" id="Line" stroke="#979797" stroke-linecap="square"></path>
            <path id="Line-decoration-1" d="M205.358525,272.870396 L194.558525,269.870396 L194.558525,275.870396 L205.358525,272.870396 Z" stroke="#979797" stroke-linecap="square"></path>
            <path d="M48,92.1287014 C48,92.1287014 67.850884,92.9378716 105.103379,92.9378716 C147.62169,92.9378716 124.058956,196.890673 124.058956,230 C124.058956,351.092584 204.670439,349.562149 204.670439,349.562149" id="Line" stroke="#979797" stroke-linecap="square"></path>
            <path id="Line-decoration-1" d="M204.670439,349.562149 L193.870439,346.562149 L193.870439,352.562149 L204.670439,349.562149 Z" stroke="#979797" stroke-linecap="square"></path>
            <path d="M561,192 C613.870799,192 596.254054,224.333656 604.334742,245.269371 C619.68678,285.043945 685.956735,270.999619 685.956735,270.999619" id="Line" stroke="#979797" stroke-linecap="square" transform="translate(623.478367, 232.702804) scale(-1, 1) translate(-623.478367, -232.702804) "></path>
            <path d="M561,192 C613.870799,192 596.530332,225.138335 604.61102,266.884447 C609.868001,294.042847 616.316267,319.190446 628.766292,331.447383 C652.674255,354.984553 685.956735,349.526357 685.956735,349.526357" id="Line" stroke="#979797" stroke-linecap="square" transform="translate(623.478367, 271.037153) scale(-1, 1) translate(-623.478367, -271.037153) "></path>
        </g>
    </g>
</svg>