<?xml version="1.0" encoding="UTF-8"?>
<svg width="768px" height="240px" viewBox="0 0 768 240" version="1.1" xmlns="http://www.w3.org/2000/svg" xmlns:xlink="http://www.w3.org/1999/xlink">
    <!-- Generator: Sketch 61 (89581) - https://sketch.com -->
    <title>task-engine</title>
    <desc>Created with Sketch.</desc>
    <g id="task-engine" stroke="none" stroke-width="1" fill="none" fill-rule="evenodd">
        <path d="M169.5,24.0079983 L169.5,179.992002 C169.5,184.146702 172.856404,187.5 177.006701,187.5 L582.993299,187.5 C587.139216,187.5 590.5,184.138627 590.5,179.992002 L590.5,24.0079983 C590.5,19.8532977 587.143596,16.5 582.993299,16.5 L177.006701,16.5 C172.860784,16.5 169.5,19.8613729 169.5,24.0079983 Z" id="Rectangle" stroke="#979797" fill="#FFFFFF"></path>
        <circle id="Oval" stroke="#979797" cx="379" cy="128" r="17"></circle>
        <path d="M224.5,71.9969413 L224.5,110.003059 C224.5,114.140557 227.858367,117.5 231.997528,117.5 L515.002472,117.5 C519.144019,117.5 522.5,114.14392 522.5,110.003059 L522.5,71.9969413 C522.5,67.859443 519.141633,64.5 515.002472,64.5 L231.997528,64.5 C227.855981,64.5 224.5,67.8560801 224.5,71.9969413 Z" id="Rectangle" stroke="#979797" fill="#FFE6E6"></path>
        <text id="Task-controller" font-family="GTPressura, GT Pressura" font-size="14" font-weight="normal" fill="#000000">
            <tspan x="341.819" y="94">Task controller</tspan>
        </text>
        <text id="progressReporter" font-family="GTPressura, GT Pressura" font-size="14" font-weight="normal" fill="#000000">
            <tspan x="330.094" y="167">progressReporter</tspan>
        </text>
        <path id="Line" d="M215,90 L224,94.5 L215,99 L214.999,95 L39.9972678,95 L39.9972678,94 L214.999,94 L215,90 Z" fill="#9B9B9B" fill-rule="nonzero"></path>
        <path id="Line" d="M390.276393,112.052786 L398.326238,118.09017 L394.748,119.879 L394.947214,120.276393 L395.17082,120.723607 L394.276393,121.17082 L394.052786,120.723607 L393.854,120.326 L390.276393,122.115092 L390.276393,112.052786 Z" fill="#9B9B9B" fill-rule="nonzero"></path>
        <text id="Task-Engine" font-family="GTPressura-Bold, GT Pressura" font-size="14" font-weight="bold" fill="#000000">
            <tspan x="347.983" y="45">Task Engine</tspan>
        </text>
        <text id="submitTask" font-family="GTPressura-Bold, GT Pressura" font-size="14" font-weight="bold" fill="#000000">
            <tspan x="64.183" y="77">submitTask</tspan>
        </text>
        <text id="Event:-task.finished" font-family="GTPressura-Bold, GT Pressura" font-size="14" font-weight="bold" fill="#000000">
            <tspan x="608.304" y="75">Event: task.finished</tspan>
        </text>
        <path id="Line" d="M718.009852,87 L727.009852,91.5 L718.009852,96 L718.009,92 L523,92 L523,91 L718.009,91 L718.009852,87 Z" fill="#9B9B9B" fill-rule="nonzero"></path>
        <text id="Both" font-family="GTPressura, GT Pressura" font-size="14" font-weight="normal" fill="#000000">
            <tspan x="543.015" y="218">Both</tspan>
        </text>
        <path d="M200.5,207.995275 L200.5,218.004725 C200.5,222.138958 203.857116,225.5 207.991652,225.5 L216.008348,225.5 C220.144473,225.5 223.5,222.143559 223.5,218.004725 L223.5,207.995275 C223.5,203.861042 220.142884,200.5 216.008348,200.5 L207.991652,200.5 C203.855527,200.5 200.5,203.856441 200.5,207.995275 Z" id="Rectangle" stroke="#979797" fill="#DAFFB5"></path>
        <path d="M506.5,207.995275 L506.5,218.004725 C506.5,222.138958 509.857116,225.5 513.991652,225.5 L522.008348,225.5 C526.144473,225.5 529.5,222.143559 529.5,218.004725 L529.5,207.995275 C529.5,203.861042 526.142884,200.5 522.008348,200.5 L513.991652,200.5 C509.855527,200.5 506.5,203.856441 506.5,207.995275 Z" id="Rectangle" stroke="#979797" fill="#FFE6E6"></path>
        <path d="M347.5,208.995275 L347.5,219.004725 C347.5,223.138958 350.857116,226.5 354.991652,226.5 L363.008348,226.5 C367.144473,226.5 370.5,223.143559 370.5,219.004725 L370.5,208.995275 C370.5,204.861042 367.142884,201.5 363.008348,201.5 L354.991652,201.5 C350.855527,201.5 347.5,204.856441 347.5,208.995275 Z" id="Rectangle" stroke="#979797" fill="#C6DDFF"></path>
        <text id="Configurable" font-family="GTPressura, GT Pressura" font-size="14" font-weight="normal" fill="#000000">
            <tspan x="235.174" y="218">Configurable</tspan>
        </text>
        <text id="Programmable" font-family="GTPressura, GT Pressura" font-size="14" font-weight="normal" fill="#000000">
            <tspan x="384.176" y="218">Programmable</tspan>
        </text>
    </g>
</svg>