<?xml version="1.0" encoding="UTF-8"?>
<svg width="628px" height="482px" viewBox="0 0 628 482" version="1.1" xmlns="http://www.w3.org/2000/svg" xmlns:xlink="http://www.w3.org/1999/xlink">
    <title>layers-inheritance</title>
    <g id="layers-inheritance" stroke="none" stroke-width="1" fill="none" fill-rule="evenodd">
        <path d="M399.991402,11.5 C402.064945,11.5 403.942179,12.3403983 405.300983,13.6993714 C406.659668,15.0582264 407.5,16.9355567 407.5,19.0095985 L407.5,19.0095985 L407.5,150.990402 C407.5,153.064599 406.660166,154.94242 405.301273,156.301484 C403.943016,157.659909 402.06622,158.5 399.991402,158.5 L399.991402,158.5 L231.008598,158.5 C228.935055,158.5 227.057821,157.659602 225.699017,156.300629 C224.340332,154.941774 223.5,153.064443 223.5,150.990402 L223.5,150.990402 L223.5,19.0095985 C223.5,16.9354015 224.339834,15.0575795 225.698727,13.6985164 C227.056984,12.3400907 228.93378,11.5 231.008598,11.5 L231.008598,11.5 Z" id="Rectangle-Copy-11" stroke="#979797" fill="#FFFFFF"></path>
        <text id="root-(en)" font-family="GTPressura, GT Pressura" font-size="14" font-weight="normal" fill="#000000">
            <tspan x="286.379" y="34">root  (en)</tspan>
        </text>
        <text id="item-{-_id:-1-_name:" font-family="GTPressura, GT Pressura" font-size="14" font-weight="normal" fill="#000000">
            <tspan x="242" y="64">item {</tspan>
            <tspan x="242" y="82">  _id: 1</tspan>
            <tspan x="242" y="100">  _name: me-groot</tspan>
            <tspan x="242" y="118">  displayName: “Me Groot”</tspan>
            <tspan x="242" y="136">}</tspan>
        </text>
        <path d="M191.991402,203.5 C194.064556,203.5 195.941457,204.340668 197.300198,205.699191 C198.659298,207.058072 199.5,208.935104 199.5,211.007311 L199.5,211.007311 L199.5,464.992689 C199.5,467.066238 198.660178,468.943467 197.301323,470.302103 C195.943054,471.660154 194.066236,472.5 191.991402,472.5 L191.991402,472.5 L23.0085983,472.5 C20.9354442,472.5 19.0585429,471.659332 17.6998018,470.300809 C16.3407022,468.941928 15.5,467.064896 15.5,464.992689 L15.5,464.992689 L15.5,211.007311 C15.5,208.933762 16.3398223,207.056533 17.698677,205.697897 C19.056946,204.339846 20.9337639,203.5 23.0085983,203.5 L23.0085983,203.5 Z" id="Rectangle-Copy-12" stroke="#979797" fill="#FFFFFF"></path>
        <text id="item-{-_id:-1-_name:" font-family="GTPressura, GT Pressura" font-size="14" font-weight="normal" fill="#000000">
            <tspan x="33" y="260">item {</tspan>
            <tspan x="33" y="278">  _id: 1</tspan>
            <tspan x="33" y="296">  _name: jeg-groot</tspan>
            <tspan x="33" y="314">  displayName: “Me Groot”</tspan>
            <tspan x="33" y="332">  inherit: [</tspan>
            <tspan x="33" y="350">    “PARENT”,</tspan>
            <tspan x="33" y="368">    “SORT”,</tspan>
            <tspan x="33" y="386">    “CONTENT”</tspan>
            <tspan x="33" y="404">  ]</tspan>
            <tspan x="33" y="422">  originProject: “root”</tspan>
            <tspan x="33" y="440">}</tspan>
        </text>
        <text id="norwegian-(no)" font-family="GTPressura, GT Pressura" font-size="14" font-weight="normal" fill="#000000">
            <tspan x="62.263" y="229">norwegian  (no)</tspan>
        </text>
        <path d="M398.991402,203.5 C401.0645,203.5 402.941384,204.339735 404.300159,205.696551 C405.659229,207.05366 406.5,208.928126 406.5,210.997049 L406.5,210.997049 L406.5,461.002951 C406.5,463.073592 405.66023,464.94816 404.30155,466.304881 C402.943223,467.661249 401.06631,468.5 398.991402,468.5 L398.991402,468.5 L230.008598,468.5 C227.9355,468.5 226.058616,467.660265 224.699841,466.303449 C223.340771,464.94634 222.5,463.071874 222.5,461.002951 L222.5,461.002951 L222.5,210.997049 C222.5,208.926408 223.33977,207.05184 224.69845,205.695119 C226.056777,204.338751 227.93369,203.5 230.008598,203.5 L230.008598,203.5 Z" id="Rectangle-Copy-13" stroke="#979797" fill="#FFFFFF"></path>
        <text id="item-{-_id:-1-_name:" font-family="GTPressura, GT Pressura" font-size="14" font-weight="normal" fill="#000000">
            <tspan x="242" y="260">item {</tspan>
            <tspan x="242" y="278">  _id: 1</tspan>
            <tspan x="242" y="296">  _name: me-groot</tspan>
            <tspan x="242" y="314">  displayName: “Ich Groot”</tspan>
            <tspan x="242" y="332">  inherit: [</tspan>
            <tspan x="242" y="350">    “PARENT”,</tspan>
            <tspan x="242" y="368">    “SORT”,</tspan>
            <tspan x="242" y="386">    “NAME”</tspan>
            <tspan x="242" y="404">  ]</tspan>
            <tspan x="242" y="422">  originProject: “root”</tspan>
            <tspan x="242" y="440">}</tspan>
        </text>
        <text id="german-(de)" font-family="GTPressura, GT Pressura" font-size="14" font-weight="normal" fill="#000000">
            <tspan x="279.867" y="229">german (de)</tspan>
        </text>
        <path d="M605.991402,203.5 C608.0645,203.5 609.941384,204.339735 611.300159,205.696551 C612.659229,207.05366 613.5,208.928126 613.5,210.997049 L613.5,210.997049 L613.5,461.002951 C613.5,463.073592 612.66023,464.94816 611.30155,466.304881 C609.943223,467.661249 608.06631,468.5 605.991402,468.5 L605.991402,468.5 L437.008598,468.5 C434.9355,468.5 433.058616,467.660265 431.699841,466.303449 C430.340771,464.94634 429.5,463.071874 429.5,461.002951 L429.5,461.002951 L429.5,210.997049 C429.5,208.926408 430.33977,207.05184 431.69845,205.695119 C433.056777,204.338751 434.93369,203.5 437.008598,203.5 L437.008598,203.5 Z" id="Rectangle-Copy-10" stroke="#979797" fill="#FFFFFF"></path>
        <text id="french-(fr)" font-family="GTPressura, GT Pressura" font-size="14" font-weight="normal" fill="#000000">
            <tspan x="492.194" y="229">french (fr)</tspan>
        </text>
        <text id="item-{-_id:-1-_name:" font-family="GTPressura, GT Pressura" font-size="14" font-weight="normal" fill="#000000">
            <tspan x="450" y="261">item {</tspan>
            <tspan x="450" y="279">  _id: 1</tspan>
            <tspan x="450" y="297">  _name: le-groot</tspan>
            <tspan x="450" y="315">  displayName: “Le Groot”</tspan>
            <tspan x="450" y="333">  inherit: [</tspan>
            <tspan x="450" y="351">    “PARENT”,</tspan>
            <tspan x="450" y="369">    “SORT”,</tspan>
            <tspan x="450" y="387">  ]</tspan>
            <tspan x="450" y="405">  originProject: “root”</tspan>
            <tspan x="450" y="423">}</tspan>
        </text>
        <path id="Line-Copy" d="M280.024193,157.854069 L289.975411,159.345131 L282.811831,166.411468 L281.572,162.608 L157.654869,202.975411 L157.179458,203.13028 L156.86972,202.179458 L157.345131,202.024589 L281.262,161.657 L280.024193,157.854069 Z" fill="#9B9B9B" fill-rule="nonzero"></path>
        <path id="Line-Copy-2" d="M346.016141,158.106064 L344.676,161.875 L457.667428,202.028865 L458.138563,202.196293 L457.803707,203.138563 L457.332572,202.971135 L344.342,162.817 L343.002437,166.586488 L336.028865,159.332572 L346.016141,158.106064 Z" fill="#9B9B9B" fill-rule="nonzero"></path>
        <path id="Line" d="M315.511361,159.000129 L319.805706,168.100052 L315.806,168.009 L314.999871,203.511361 L314.98851,204.011232 L313.988768,203.98851 L314.000129,203.488639 L314.806,167.986 L310.80803,167.895559 L315.511361,159.000129 Z" fill="#9B9B9B" fill-rule="nonzero"></path>
    </g>
</svg>