<?xml version="1.0" encoding="UTF-8"?>
<svg width="768px" height="280px" viewBox="0 0 768 280" version="1.1" xmlns="http://www.w3.org/2000/svg" xmlns:xlink="http://www.w3.org/1999/xlink">
    <!-- Generator: Sketch 61 (89581) - https://sketch.com -->
    <title>admin-pipeline</title>
    <desc>Created with Sketch.</desc>
    <g id="admin-pipeline" stroke="none" stroke-width="1" fill="none" fill-rule="evenodd">
        <path d="M137.5,23.9964448 L137.5,210.003555 C137.5,214.143094 140.857834,217.5 144.999292,217.5 L631.000708,217.5 C635.145405,217.5 638.5,214.145291 638.5,210.003555 L638.5,23.9964448 C638.5,19.8569057 635.142166,16.5 631.000708,16.5 L144.999292,16.5 C140.854595,16.5 137.5,19.8547092 137.5,23.9964448 Z" id="Rectangle" stroke="#979797" fill="#FFFFFF"></path>
        <path d="M485.858938,92 C485.858938,92 457.353457,92 499.485953,92 C528.410966,92 521.79141,134.774971 522.723339,143.473615 C526.734474,180.913607 554.221346,173.219122 554.221346,173.219122" id="Line" stroke="#979797" stroke-linecap="square" transform="translate(515.327256, 132.936017) scale(-1, 1) translate(-515.327256, -132.936017) "></path>
        <path d="M-182.5,25.0047607 L-182.5,130.995239 C-182.5,135.139264 -179.142679,138.5 -175.002472,138.5 L108.002472,138.5 C112.14391,138.5 115.5,135.140529 115.5,130.995239 L115.5,25.0047607 C115.5,20.8607355 112.142679,17.5 108.002472,17.5 L-175.002472,17.5 C-179.14391,17.5 -182.5,20.8594712 -182.5,25.0047607 Z" id="Rectangle" stroke="#979797" fill="#FFFFFF"></path>
        <rect id="Rectangle" stroke="#979797" fill="#FFE6E6" x="282.933165" y="64.5" width="203" height="53" rx="8"></rect>
        <path d="M283.933165,151.996941 L283.933165,190.003059 C283.933165,194.140564 287.291321,197.5 291.430207,197.5 L479.436123,197.5 C483.574323,197.5 486.933165,194.142236 486.933165,190.003059 L486.933165,151.996941 C486.933165,147.859436 483.575009,144.5 479.436123,144.5 L291.430207,144.5 C287.292007,144.5 283.933165,147.857764 283.933165,151.996941 Z" id="Rectangle" stroke="#979797" fill="#FFE6E6"></path>
        <text id="Tool-controller-(adm" font-family="GTPressura, GT Pressura" font-size="14" font-weight="normal" fill="#000000">
            <tspan x="308.878165" y="96">Tool controller (admin app)</tspan>
        </text>
        <text id="Widget-controller" font-family="GTPressura, GT Pressura" font-size="14" font-weight="normal" fill="#000000">
            <tspan x="340.839165" y="177">Widget controller</tspan>
        </text>
        <path id="Line" d="M232.231512,94.5 C245.294108,94.5 251.600017,103.817692 253.363868,119.829788 C253.91272,124.81222 253.986289,129.253629 253.836339,136.488144 C253.749637,140.671234 253.738811,141.92295 253.830805,142.996556 L253.857577,143.278477 C255.729855,161.324661 263.147474,169.599905 273.479715,171.128817 L273.258078,167.249158 L282.499192,171.230591 L273.769378,176.234622 L273.537287,172.14734 C262.637401,170.629534 254.793484,161.989695 252.862916,143.381672 C252.736329,142.161546 252.740796,141.087382 252.836554,136.467421 C252.985651,129.274034 252.912642,124.866426 252.369881,119.939283 C250.671993,104.525998 244.771342,95.678076 232.602195,95.5026589 L232.231512,95.5 L142.124892,95.5 L142.124892,95.5 L115.5,95.5 L115.5,94.5 L123.838915,94.5 L123.838915,94.5 L232.231512,94.5 Z" fill="#979797" fill-rule="nonzero"></path>
        <text id="Admin-Engine" font-family="GTPressura-Bold, GT Pressura" font-size="14" font-weight="bold" fill="#000000">
            <tspan x="348.24" y="45">Admin Engine</tspan>
        </text>
        <text id="Common-pipeline" font-family="GTPressura-Bold, GT Pressura" font-size="14" font-weight="bold" fill="#000000">
            <tspan x="31.964" y="49">Common</tspan>
            <tspan x="34.456" y="68">pipeline</tspan>
        </text>
        <path d="M659.5,24.0047607 L659.5,129.995239 C659.5,134.139264 662.857321,137.5 666.997528,137.5 L950.002472,137.5 C954.14391,137.5 957.5,134.140529 957.5,129.995239 L957.5,24.0047607 C957.5,19.8607355 954.142679,16.5 950.002472,16.5 L666.997528,16.5 C662.85609,16.5 659.5,19.8594712 659.5,24.0047607 Z" id="Rectangle" stroke="#979797" fill="#FFFFFF"></path>
        <text id="Common-pipeline" font-family="GTPressura-Bold, GT Pressura" font-size="14" font-weight="bold" fill="#000000">
            <tspan x="689.964" y="48">Common</tspan>
            <tspan x="692.456" y="67">pipeline</tspan>
        </text>
        <text id="Both" font-family="GTPressura, GT Pressura" font-size="14" font-weight="normal" fill="#000000">
            <tspan x="540.015" y="255">Both</tspan>
        </text>
        <path d="M197.5,244.995275 L197.5,255.004725 C197.5,259.138958 200.857116,262.5 204.991652,262.5 L213.008348,262.5 C217.144473,262.5 220.5,259.143559 220.5,255.004725 L220.5,244.995275 C220.5,240.861042 217.142884,237.5 213.008348,237.5 L204.991652,237.5 C200.855527,237.5 197.5,240.856441 197.5,244.995275 Z" id="Rectangle" stroke="#979797" fill="#DAFFB5"></path>
        <path d="M503.5,244.995275 L503.5,255.004725 C503.5,259.138958 506.857116,262.5 510.991652,262.5 L519.008348,262.5 C523.144473,262.5 526.5,259.143559 526.5,255.004725 L526.5,244.995275 C526.5,240.861042 523.142884,237.5 519.008348,237.5 L510.991652,237.5 C506.855527,237.5 503.5,240.856441 503.5,244.995275 Z" id="Rectangle" stroke="#979797" fill="#FFE6E6"></path>
        <path d="M344.5,245.995275 L344.5,256.004725 C344.5,260.138958 347.857116,263.5 351.991652,263.5 L360.008348,263.5 C364.144473,263.5 367.5,260.143559 367.5,256.004725 L367.5,245.995275 C367.5,241.861042 364.142884,238.5 360.008348,238.5 L351.991652,238.5 C347.855527,238.5 344.5,241.856441 344.5,245.995275 Z" id="Rectangle" stroke="#979797" fill="#C6DDFF"></path>
        <text id="Configurable" font-family="GTPressura, GT Pressura" font-size="14" font-weight="normal" fill="#000000">
            <tspan x="232.174" y="255">Configurable</tspan>
        </text>
        <text id="Programmable" font-family="GTPressura, GT Pressura" font-size="14" font-weight="normal" fill="#000000">
            <tspan x="381.176" y="255">Programmable</tspan>
        </text>
        <path id="Line" d="M273.433165,90 L282.433165,94.5 L273.433165,99 L273.433,95 L57,95 L57,94 L273.433,94 L273.433165,90 Z" fill="#9B9B9B" fill-rule="nonzero"></path>
        <path id="Line" d="M707,87 L716,91.5 L707,96 L707,92 L485.433165,92 L485.433165,91 L707,91 L707,87 Z" fill="#9B9B9B" fill-rule="nonzero"></path>
    </g>
</svg>