<?xml version="1.0" encoding="UTF-8"?>
<svg width="768px" height="499px" viewBox="0 0 768 499" version="1.1" xmlns="http://www.w3.org/2000/svg" xmlns:xlink="http://www.w3.org/1999/xlink">
    <!-- Generator: Sketch 61 (89581) - https://sketch.com -->
    <title>common-pipeline</title>
    <desc>Created with Sketch.</desc>
    <g id="common-pipeline" stroke="none" stroke-width="1" fill="none" fill-rule="evenodd">
        <path d="M123.5,25.9969413 L123.5,64.0030587 C123.5,68.1405719 126.857906,71.5 130.996466,71.5 L244.003534,71.5 C248.140682,71.5 251.5,68.1418448 251.5,64.0030587 L251.5,25.9969413 C251.5,21.8594281 248.142094,18.5 244.003534,18.5 L130.996466,18.5 C126.859318,18.5 123.5,21.8581552 123.5,25.9969413 Z" id="Rectangle" stroke="#979797" fill="#DFFEC0"></path>
        <text id="HTTP-request" font-family="GTPressura, GT Pressura" font-size="14" font-weight="normal" fill="#000000">
            <tspan x="54.532" y="73">HTTP</tspan>
            <tspan x="46.034" y="91">request</tspan>
        </text>
        <text id="Vhost-filter" font-family="GTPressura, GT Pressura" font-size="14" font-weight="normal" fill="#000000">
            <tspan x="156.346" y="51">Vhost filter</tspan>
        </text>
        <rect id="Rectangle" stroke="#979797" fill="#FFE6E6" x="276.5" y="18.5" width="122" height="53" rx="8"></rect>
        <path id="Path-2" d="M570.803282,51.1892882 C581.71007,56.6749991 584.802368,64.7970911 578.405295,74.7069835 C561.238539,101.300507 499.70053,110.024942 368.750242,103.49938 C279.647506,99.0591812 229.042777,99.8904921 193.972906,107.81623 C154.732051,116.684604 136.702186,134.925828 136.702186,167 C136.702186,190.947921 148.280407,206.772391 168.521166,215.915555 C182.598587,222.274613 199.306113,224.805327 215.800548,224.804903 L216.183,224.803 L216.03248,220.825673 L225.196703,224.981033 L216.373881,229.819195 L216.221,225.803 L215.816164,225.804906 C199.187482,225.80709 182.344324,223.25705 168.109498,216.826888 C147.529309,207.530397 135.702186,191.365742 135.702186,167 C135.702186,134.409206 154.091718,115.804099 193.752466,106.840829 C228.941615,98.8881349 279.605578,98.0558509 368.800013,102.50062 C499.335722,109.005521 560.689485,100.307208 577.565138,74.1646415 C583.612582,64.7963684 580.765937,57.3194972 570.353952,52.082654 C561.056948,47.406605 546.189855,44.8914084 529.707668,44.9893303 L528.895784,44.9962549 L528.884673,43.9963166 C545.835519,43.8079662 561.187736,46.3530242 570.803282,51.1892882 Z" fill="#979797" fill-rule="nonzero"></path>
        <path id="Path-2" d="M592.576364,238.689885 C608.143674,248.350206 616.794354,263.192569 616.794354,283 C616.794354,323.264432 594.682548,344.784477 549.489731,353.462051 C529.942982,357.215267 505.996183,358.669874 474.998132,358.363658 C451.852861,358.135016 438.191995,357.542821 381.495565,354.65774 C369.507457,354.047708 360.782443,353.618973 352.025028,353.217755 C346.071208,352.944984 339.59929,352.618874 331.254916,352.176886 C327.214309,351.962862 312.046655,351.146125 308.772442,350.971888 C287.457183,349.837598 272.413368,349.127375 257.284825,348.598173 C211.695533,347.003443 177.264754,347.664948 151.493531,351.398723 C120.288846,355.919706 103.794354,364.853787 103.794354,379 C103.794354,389.687728 108.453063,397.000973 116.764226,401.509826 C122.845844,404.809138 130.427276,406.387235 138.530889,406.698346 L138.713,406.704 L138.602723,402.739415 L147.725023,406.98602 L138.854359,411.735897 L138.741,407.706 L138.510852,407.69832 C130.260575,407.383742 122.531451,405.776257 116.287373,402.388809 C107.663509,397.710314 102.794354,390.066711 102.794354,379 C102.794354,364.147234 119.689609,354.996083 151.350146,350.409056 C177.195382,346.664558 211.675027,346.002114 257.319783,347.598784 L259.75257,347.685471 C274.086089,348.205582 288.646949,348.899496 308.825582,349.973301 C312.100264,350.147562 327.267751,350.964291 331.30781,351.178286 C339.650012,351.620159 346.119754,351.946159 352.070795,352.218803 C360.830219,352.620113 369.556737,353.048921 381.546386,353.659032 C438.226057,356.54326 451.88239,357.135259 475.00801,357.363707 C505.945237,357.669322 529.831601,356.218386 549.301163,352.479991 C594.060679,343.885616 615.794354,322.733582 615.794354,283 C615.794354,263.546333 607.328647,249.021335 592.049085,239.539577 C579.074224,231.488005 561.567927,227.430835 543.020018,227.493994 L542.149835,227.499973 L542.139504,226.500027 C561.185685,226.303256 579.220901,230.40213 592.576364,238.689885 Z" fill="#979797" fill-rule="nonzero"></path>
        <text id="Java-request-filters" font-family="GTPressura, GT Pressura" font-size="14" font-weight="normal" fill="#000000">
            <tspan x="323.235" y="40">Java </tspan>
            <tspan x="296.005" y="58">request filters</tspan>
        </text>
        <rect id="Rectangle" stroke="#979797" fill="#FEE6E6" x="424.5" y="18.5" width="104" height="53" rx="8"></rect>
        <rect id="Rectangle" stroke="#979797" fill="#FEE6E6" x="424.5" y="18.5" width="104" height="53" rx="8"></rect>
        <text id="autoLogin-filter" font-family="GTPressura, GT Pressura" font-size="14" font-weight="normal" fill="#000000">
            <tspan x="449.273" y="42">autoLogin</tspan>
            <tspan x="463.294" y="60">filter</tspan>
        </text>
        <rect id="Rectangle" stroke="#979797" fill="#FEE6E6" x="269.5" y="380.5" width="91" height="53" rx="8"></rect>
        <text id="Error-handler" font-family="GTPressura, GT Pressura" font-size="14" font-weight="normal" fill="#000000">
            <tspan x="300.154" y="403">Error</tspan>
            <tspan x="292.454" y="421">handler</tspan>
        </text>
        <rect id="Rectangle" stroke="#979797" fill="#FEE6E6" x="149.5" y="380.5" width="96" height="53" rx="8"></rect>
        <text id="401-handler" font-family="GTPressura, GT Pressura" font-size="14" font-weight="normal" fill="#000000">
            <tspan x="188.382" y="403">401</tspan>
            <tspan x="176.454" y="421">handler</tspan>
        </text>
        <path d="M276.5,139.000741 L276.5,158.999259 C276.5,163.140809 279.861991,166.5 284.008361,166.5 L483.991639,166.5 C488.134821,166.5 491.5,163.139676 491.5,158.999259 L491.5,139.000741 C491.5,134.859191 488.138009,131.5 483.991639,131.5 L284.008361,131.5 C279.865179,131.5 276.5,134.860324 276.5,139.000741 Z" id="Rectangle" stroke="#979797" fill="#FFFFFF"></path>
        <text id="Engine-pipeline" font-family="GTPressura, GT Pressura" font-size="14" font-weight="normal" fill="#000000">
            <tspan x="343.541" y="155">Engine pipeline</tspan>
        </text>
        <path d="M169.5,464.995275 L169.5,475.004725 C169.5,479.138958 172.857116,482.5 176.991652,482.5 L185.008348,482.5 C189.144473,482.5 192.5,479.143559 192.5,475.004725 L192.5,464.995275 C192.5,460.861042 189.142884,457.5 185.008348,457.5 L176.991652,457.5 C172.855527,457.5 169.5,460.856441 169.5,464.995275 Z" id="Rectangle" stroke="#979797" fill="#DFFEC0"></path>
        <path d="M481.5,463.995275 L481.5,474.004725 C481.5,478.138958 484.857116,481.5 488.991652,481.5 L497.008348,481.5 C501.144473,481.5 504.5,478.143559 504.5,474.004725 L504.5,463.995275 C504.5,459.861042 501.142884,456.5 497.008348,456.5 L488.991652,456.5 C484.855527,456.5 481.5,459.856441 481.5,463.995275 Z" id="Rectangle" stroke="#979797" fill="#FFE6E6"></path>
        <path d="M322.5,465.995275 L322.5,476.004725 C322.5,480.138958 325.857116,483.5 329.991652,483.5 L338.008348,483.5 C342.144473,483.5 345.5,480.143559 345.5,476.004725 L345.5,465.995275 C345.5,461.861042 342.142884,458.5 338.008348,458.5 L329.991652,458.5 C325.855527,458.5 322.5,461.856441 322.5,465.995275 Z" id="Rectangle" stroke="#979797" fill="#C6DDFF"></path>
        <text id="HTTP-response" font-family="GTPressura, GT Pressura" font-size="14" font-weight="normal" fill="#000000">
            <tspan x="682.032" y="434">HTTP</tspan>
            <tspan x="669.341" y="452">response</tspan>
        </text>
        <rect id="Rectangle" stroke="#979797" fill="#FFE6E6" x="385.5" y="379.5" width="122" height="53" rx="8"></rect>
        <text id="Java-response-filter" font-family="GTPressura, GT Pressura" font-size="14" font-weight="normal" fill="#000000">
            <tspan x="431.735" y="401">Java</tspan>
            <tspan x="400.312" y="419">response filters</tspan>
        </text>
        <path id="Line" d="M737.981088,401.035905 L746.999996,405.49789 L738.019063,410.035825 L738.002,406.035 L628.00211,406.499996 L627.502114,406.502105 L627.497895,405.502114 L627.99789,405.500004 L737.998,405.035 L737.981088,401.035905 Z" fill="#9B9B9B" fill-rule="nonzero"></path>
        <text id="Configurable" font-family="GTPressura, GT Pressura" font-size="14" font-weight="normal" fill="#000000">
            <tspan x="210.174" y="475">Configurable</tspan>
        </text>
        <text id="Programmable" font-family="GTPressura, GT Pressura" font-size="14" font-weight="normal" fill="#000000">
            <tspan x="359.176" y="475">Programmable</tspan>
        </text>
        <text id="Both" font-family="GTPressura, GT Pressura" font-size="14" font-weight="normal" fill="#000000">
            <tspan x="518.015" y="475">Both</tspan>
        </text>
        <rect id="Rectangle" stroke="#979797" fill="#DFFEC0" x="531.5" y="379.5" width="113" height="53" rx="8"></rect>
        <text id="System-error-handler" font-family="GTPressura, GT Pressura" font-size="14" font-weight="normal" fill="#000000">
            <tspan x="569.136" y="401">System</tspan>
            <tspan x="553.344" y="419">error handler</tspan>
        </text>
        <path d="M276.5,191.770439 L276.5,210.754915 C276.5,214.904018 279.858067,218.262677 284.003543,218.262677 L482.996457,218.262677 C487.146145,218.262677 490.5,214.904513 490.5,210.754915 L490.5,191.770439 C490.5,187.621336 487.141933,184.262677 482.996457,184.262677 L284.003543,184.262677 C279.853855,184.262677 276.5,187.620841 276.5,191.770439 Z" id="Rectangle" stroke="#979797" fill="#C6DDFF"></path>
        <text id="Asset-service:-_/ass" font-family="GTPressura, GT Pressura" font-size="14" font-weight="normal" fill="#000000">
            <tspan x="317.178852" y="205.762677">Asset service: _/asset/</tspan>
        </text>
        <path d="M278.5,241.007762 L278.5,259.992238 C278.5,264.141341 281.858067,267.5 286.003543,267.5 L484.996457,267.5 C489.146145,267.5 492.5,264.141836 492.5,259.992238 L492.5,241.007762 C492.5,236.858659 489.141933,233.5 484.996457,233.5 L286.003543,233.5 C281.853855,233.5 278.5,236.858164 278.5,241.007762 Z" id="Rectangle" stroke="#979797" fill="#FFE6E6"></path>
        <text id="HTTP-service:-_/serv" font-family="GTPressura, GT Pressura" font-size="14" font-weight="normal" fill="#000000">
            <tspan x="314.217852" y="256">HTTP service: _/service/</tspan>
        </text>
        <path d="M278.5,290.007762 L278.5,308.992238 C278.5,313.141341 281.858067,316.5 286.003543,316.5 L484.996457,316.5 C489.146145,316.5 492.5,313.141836 492.5,308.992238 L492.5,290.007762 C492.5,285.858659 489.141933,282.5 484.996457,282.5 L286.003543,282.5 C281.853855,282.5 278.5,285.858164 278.5,290.007762 Z" id="Rectangle" stroke="#979797" fill="#FFE6E6"></path>
        <text id="Idprovider-service:" font-family="GTPressura, GT Pressura" font-size="14" font-weight="normal" fill="#000000">
            <tspan x="292.301704" y="305">Idprovider service: _/idprovider</tspan>
        </text>
        <path id="Line" d="M267.194827,41 L276.194827,45.5 L267.194827,50 L267.194,46 L252,46 L252,45 L267.194,45 L267.194827,41 Z" fill="#9B9B9B" fill-rule="nonzero"></path>
        <path id="Line" d="M415.194827,41 L424.194827,45.5 L415.194827,50 L415.194,46 L400,46 L400,45 L415.194,45 L415.194827,41 Z" fill="#9B9B9B" fill-rule="nonzero"></path>
        <path id="Line" d="M114,41 L123,45.5 L114,50 L114,46 L31,46 L31,45 L114,45 L114,41 Z" fill="#9B9B9B" fill-rule="nonzero"></path>
        <path id="Line" d="M523.194827,402 L532.194827,406.5 L523.194827,411 L523.194,406.999 L508,407 L508,406 L523.194,405.999 L523.194827,402 Z" fill="#9B9B9B" fill-rule="nonzero"></path>
        <path id="Line" d="M261.194827,402 L270.194827,406.5 L261.194827,411 L261.194,406.999 L246,407 L246,406 L261.194,405.999 L261.194827,402 Z" fill="#9B9B9B" fill-rule="nonzero"></path>
        <path id="Line" d="M376.792241,401.5 L385.792241,406 L376.792241,410.5 L376.792,406.499 L361.597414,406.5 L361.597414,405.5 L376.792,405.499 L376.792241,401.5 Z" fill="#9B9B9B" fill-rule="nonzero"></path>
        <line x1="253" y1="147" x2="253" y2="308" id="Line-2" stroke="#979797" stroke-linecap="square"></line>
        <line x1="518" y1="147" x2="518" y2="308" id="Line-2" stroke="#979797" stroke-linecap="square"></line>
    </g>
</svg>