<?xml version="1.0" encoding="UTF-8"?>
<svg width="768px" height="460px" viewBox="0 0 768 460" version="1.1" xmlns="http://www.w3.org/2000/svg" xmlns:xlink="http://www.w3.org/1999/xlink">
    <!-- Generator: Sketch 61 (89581) - https://sketch.com -->
    <title>site-pipeline</title>
    <desc>Created with Sketch.</desc>
    <defs>
        <path d="M271.464261,251.996941 C271.464261,247.580353 275.038803,244 279.467804,244 L478.460718,244 C482.880953,244 486.464261,247.584911 486.464261,251.996941 L486.464261,290.003059 C486.464261,294.419647 482.88972,298 478.460718,298 L279.467804,298 C275.047569,298 271.464261,294.415089 271.464261,290.003059 L271.464261,251.996941 Z" id="path-1"></path>
    </defs>
    <g id="site-pipeline" stroke="none" stroke-width="1" fill="none" fill-rule="evenodd">
        <path d="M105.5,25.0033986 L105.5,387.996601 C105.5,392.139932 108.856297,395.5 112.995269,395.5 L655.004731,395.5 C659.142878,395.5 662.5,392.140033 662.5,387.996601 L662.5,25.0033986 C662.5,20.8600678 659.143703,17.5 655.004731,17.5 L112.995269,17.5 C108.857122,17.5 105.5,20.8599675 105.5,25.0033986 Z" id="Rectangle" stroke="#979797" fill="#FFFFFF"></path>
        <path id="Line" d="M542.073,56.816 L545.995626,56.0325416 L543.348058,65.7402903 L537.1704,57.7975869 L541.092,57.013 L541.00971,56.5980581 L540.911652,56.1077677 L541.892232,55.9116516 L542.073,56.816 Z" fill="#9B9B9B" fill-rule="nonzero"></path>
        <path d="M-209.5,25.0047607 L-209.5,130.995239 C-209.5,135.139264 -206.142679,138.5 -202.002472,138.5 L81.0024723,138.5 C85.1439098,138.5 88.5,135.140529 88.5,130.995239 L88.5,25.0047607 C88.5,20.8607355 85.1426789,17.5 81.0024723,17.5 L-202.002472,17.5 C-206.14391,17.5 -209.5,20.8594712 -209.5,25.0047607 Z" id="Rectangle" stroke="#979797" fill="#FFFFFF"></path>
        <path id="Line" d="M172,88 L181,92.5 L172,97 L171.999,93 L13.8087366,93 L13.8087366,92 L171.999,92 L172,88 Z" fill="#9B9B9B" fill-rule="nonzero"></path>
        <path d="M608.578645,93 C608.578645,93 646.928232,91 630.177585,126.513474 C621.728718,144.426134 523.805363,143.237 418,139 C314.036635,134.836763 202.232711,127.461954 186.03166,162.469104 C174.085726,188.281817 218.720808,193.858042 218.720808,193.858042" id="Path-2" stroke="#979797"></path>
        <text id="Site-Engine" font-family="GTPressura-Bold, GT Pressura" font-size="14" font-weight="bold" fill="#000000">
            <tspan x="351.264" y="45">Site Engine</tspan>
        </text>
        <text id="Common-pipeline" font-family="GTPressura-Bold, GT Pressura" font-size="14" font-weight="bold" fill="#000000">
            <tspan x="17.964" y="49">Common</tspan>
            <tspan x="20.456" y="68">pipeline</tspan>
        </text>
        <path d="M679.5,166.004761 L679.5,271.995239 C679.5,276.139264 682.857321,279.5 686.997528,279.5 L970.002472,279.5 C974.14391,279.5 977.5,276.140529 977.5,271.995239 L977.5,166.004761 C977.5,161.860736 974.142679,158.5 970.002472,158.5 L686.997528,158.5 C682.85609,158.5 679.5,161.859471 679.5,166.004761 Z" id="Rectangle" stroke="#979797" fill="#FFFFFF"></path>
        <text id="Common-pipeline" font-family="GTPressura-Bold, GT Pressura" font-size="14" font-weight="bold" fill="#000000">
            <tspan x="700.964" y="228">Common</tspan>
            <tspan x="703.456" y="247">pipeline</tspan>
        </text>
        <path id="Line" d="M738.009852,187 L747.009852,191.5 L738.009852,196 L738.009,192 L562,192 L562,191 L738.009,191 L738.009852,187 Z" fill="#9B9B9B" fill-rule="nonzero"></path>
        <path d="M180.5,73.9969413 L180.5,112.003059 C180.5,116.140472 183.861011,119.5 188.00362,119.5 L259.99638,119.5 C264.138777,119.5 267.5,116.142404 267.5,112.003059 L267.5,73.9969413 C267.5,69.8595282 264.138989,66.5 259.99638,66.5 L188.00362,66.5 C183.861223,66.5 180.5,69.8575956 180.5,73.9969413 Z" id="Rectangle" stroke="#979797" fill="#FFE6E6"></path>
        <circle id="Oval" stroke="#979797" cx="557" cy="55" r="17"></circle>
        <path d="M394.5,72.9969413 L394.5,111.003059 C394.5,115.140472 397.861011,118.5 402.00362,118.5 L473.99638,118.5 C478.138777,118.5 481.5,115.142404 481.5,111.003059 L481.5,72.9969413 C481.5,68.8595282 478.138989,65.5 473.99638,65.5 L402.00362,65.5 C397.861223,65.5 394.5,68.8575956 394.5,72.9969413 Z" id="Rectangle" stroke="#979797" fill="#FFE6E6"></path>
        <text id="Page-renderer" font-family="GTPressura, GT Pressura" font-size="14" font-weight="normal" fill="#000000">
            <tspan x="423.088" y="88">Page</tspan>
            <tspan x="412.161" y="106">renderer</tspan>
        </text>
        <path d="M292.5,73.9969413 L292.5,112.003059 C292.5,116.140387 295.863645,119.5 300.009691,119.5 L362.990309,119.5 C367.145882,119.5 370.5,116.147677 370.5,112.003059 L370.5,73.9969413 C370.5,69.8596131 367.136355,66.5 362.990309,66.5 L300.009691,66.5 C295.854118,66.5 292.5,69.8523232 292.5,73.9969413 Z" id="Rectangle" stroke="#979797" fill="#DFCCFF"></path>
        <text id="Page-resolver" font-family="GTPressura, GT Pressura" font-size="14" font-weight="normal" fill="#000000">
            <tspan x="318.588" y="89">Page</tspan>
            <tspan x="309.215" y="107">resolver</tspan>
        </text>
        <rect id="Rectangle" stroke="#979797" fill="#FFE6E6" x="506.5" y="65.5" width="104" height="53" rx="8"></rect>
        <rect id="Rectangle" stroke="#979797" fill="#C6DDFF" x="211.5" y="165.5" width="104" height="53" rx="8"></rect>
        <text id="Component-Renderer" font-family="GTPressura, GT Pressura" font-size="14" font-weight="normal" fill="#000000">
            <tspan x="525.628" y="88">Component</tspan>
            <tspan x="532.887" y="106">Renderer</tspan>
        </text>
        <rect id="Rectangle" stroke="#979797" fill="#FFE6E6" x="339.5" y="165.5" width="104" height="53" rx="8"></rect>
        <text id="Contributions-filter" font-family="GTPressura, GT Pressura" font-size="14" font-weight="normal" fill="#000000">
            <tspan x="353.461" y="187">Contributions</tspan>
            <tspan x="378.794" y="205">filter</tspan>
        </text>
        <text id="Response-processors" font-family="GTPressura, GT Pressura" font-size="14" font-weight="normal" fill="#000000">
            <tspan x="236.567" y="187">Response</tspan>
            <tspan x="232.416" y="205">processors</tspan>
        </text>
        <text id="Site-mappings" font-family="GTPressura, GT Pressura" font-size="14" font-weight="normal" fill="#000000">
            <tspan x="212.856" y="89">Site</tspan>
            <tspan x="196.238" y="107">mappings</tspan>
        </text>
        <path d="M467.5,172.996941 L467.5,211.003059 C467.5,215.140559 470.858293,218.5 474.997358,218.5 L554.002642,218.5 C558.144081,218.5 561.5,215.143916 561.5,211.003059 L561.5,172.996941 C561.5,168.859441 558.141707,165.5 554.002642,165.5 L474.997358,165.5 C470.855919,165.5 467.5,168.856084 467.5,172.996941 Z" id="Rectangle" stroke="#979797" fill="#FFE6E6"></path>
        <text id="Site-filters" font-family="GTPressura, GT Pressura" font-size="14" font-weight="normal" fill="#000000">
            <tspan x="503.856" y="187">Site </tspan>
            <tspan x="498.081" y="205">filters</tspan>
        </text>
        <text id="Both" font-family="GTPressura, GT Pressura" font-size="14" font-weight="normal" fill="#000000">
            <tspan x="543.015" y="432">Both</tspan>
        </text>
        <path d="M200.5,421.995275 L200.5,432.004725 C200.5,436.138958 203.857116,439.5 207.991652,439.5 L216.008348,439.5 C220.144473,439.5 223.5,436.143559 223.5,432.004725 L223.5,421.995275 C223.5,417.861042 220.142884,414.5 216.008348,414.5 L207.991652,414.5 C203.855527,414.5 200.5,417.856441 200.5,421.995275 Z" id="Rectangle" stroke="#979797" fill="#DFCCFF"></path>
        <path d="M506.5,421.995275 L506.5,432.004725 C506.5,436.138958 509.857116,439.5 513.991652,439.5 L522.008348,439.5 C526.144473,439.5 529.5,436.143559 529.5,432.004725 L529.5,421.995275 C529.5,417.861042 526.142884,414.5 522.008348,414.5 L513.991652,414.5 C509.855527,414.5 506.5,417.856441 506.5,421.995275 Z" id="Rectangle" stroke="#979797" fill="#FFE6E6"></path>
        <path d="M347.5,422.995275 L347.5,433.004725 C347.5,437.138958 350.857116,440.5 354.991652,440.5 L363.008348,440.5 C367.144473,440.5 370.5,437.143559 370.5,433.004725 L370.5,422.995275 C370.5,418.861042 367.142884,415.5 363.008348,415.5 L354.991652,415.5 C350.855527,415.5 347.5,418.856441 347.5,422.995275 Z" id="Rectangle" stroke="#979797" fill="#C6DDFF"></path>
        <text id="Content-driven" font-family="GTPressura, GT Pressura" font-size="14" font-weight="normal" fill="#000000">
            <tspan x="236.643" y="432">Content driven</tspan>
        </text>
        <text id="Programmable" font-family="GTPressura, GT Pressura" font-size="14" font-weight="normal" fill="#000000">
            <tspan x="384.176" y="432">Programmable</tspan>
        </text>
        <g id="Rectangle">
            <use fill="#DFCCFF" fill-rule="evenodd" style="mix-blend-mode: darken;" xlink:href="#path-1"></use>
            <path stroke="#979797" stroke-width="1" d="M271.964261,251.996941 L271.964261,290.003059 C271.964261,294.140473 275.325238,297.5 279.467804,297.5 L478.460718,297.5 C482.610557,297.5 485.964261,294.146525 485.964261,290.003059 L485.964261,251.996941 C485.964261,247.859527 482.603284,244.5 478.460718,244.5 L279.467804,244.5 C275.317965,244.5 271.964261,247.853475 271.964261,251.996941 Z" stroke-linejoin="square"></path>
        </g>
        <text id="Image-service:-_/ima" font-family="GTPressura, GT Pressura" font-size="14" font-weight="normal" fill="#000000">
            <tspan x="333.322" y="268">Image service: </tspan>
            <tspan x="346.958" y="286">_/image/</tspan>
        </text>
        <path d="M271.964261,331.071246 L271.964261,369.077364 C271.964261,373.214778 275.325238,376.574305 279.467804,376.574305 L478.460718,376.574305 C482.610557,376.574305 485.964261,373.22083 485.964261,369.077364 L485.964261,331.071246 C485.964261,326.933832 482.603284,323.574305 478.460718,323.574305 L279.467804,323.574305 C275.317965,323.574305 271.964261,326.92778 271.964261,331.071246 Z" id="Rectangle" stroke="#979797" fill="#FFE6E6"></path>
        <text id="Component-service:-_" font-family="GTPressura, GT Pressura" font-size="14" font-weight="normal" fill="#000000">
            <tspan x="321.775" y="345">Component service: </tspan>
            <tspan x="335.901" y="363">_/component/</tspan>
        </text>
        <path id="Line" d="M123.642324,91.8660246 C140.718884,91.8660246 152.167555,97.9400306 158.794176,109.304284 C164.285387,118.721378 166.335792,131.395132 165.818249,147.390589 C165.566889,155.159248 164.790813,162.879154 163.365692,173.510528 C163.225371,174.557318 163.081109,175.618015 162.894512,176.978695 C162.878412,177.096096 162.534992,179.595739 162.438359,180.302611 C162.079667,182.926454 161.839583,184.742113 161.630435,186.44373 C161.103064,190.73439 160.845099,193.795969 160.845099,196.167298 C160.845099,227.77902 175.951959,248.734719 202.221352,260.931979 C220.238986,269.297828 241.331726,272.693875 261.662093,272.859733 L262.139,272.862 L262.037637,268.880184 L271.149552,273.149025 L262.26733,277.877253 L262.164,273.862 L261.652729,273.859694 C241.192871,273.692801 219.970399,270.275656 201.80022,261.838978 C175.195836,249.486178 159.845099,228.192181 159.845099,196.167298 C159.845099,193.745454 160.105934,190.649817 160.637904,186.321737 C160.847726,184.614637 161.088319,182.795128 161.447575,180.167165 C161.544261,179.459899 161.887725,176.959939 161.903784,176.842831 C162.090256,175.483067 162.234393,174.423293 162.374557,173.377668 C163.795575,162.776908 164.568736,155.085994 164.818772,147.35825 C165.330789,131.533586 163.307975,119.030375 157.930314,109.808012 C151.489706,98.7627588 140.375167,92.8660246 123.642324,92.8660246 L119.871431,92.8668841 C97.8861381,92.8769768 79.8012597,92.9754182 65.3380509,93.1338255 C59.9897903,93.192402 55.5290397,93.2551599 51.9146984,93.3179139 C50.6498765,93.3398744 49.5812434,93.3602645 48.7036615,93.3785611 C48.2431587,93.3881621 47.9210621,93.3953591 47.7339302,93.3998016 L47.6619839,93.4015359 L47.1621344,93.4138049 L47.1375965,92.414106 L47.637446,92.401837 C47.8085617,92.3976369 48.155306,92.3897764 48.6828172,92.3787784 C49.561569,92.3604574 50.6313633,92.3400452 51.8973385,92.3180646 C55.513846,92.255273 59.9767311,92.1924851 65.3270991,92.1338855 C79.7938553,91.9754393 97.8821851,91.8769788 119.870858,91.8668842 L123.642324,91.8660246 Z" fill="#979797" fill-rule="nonzero"></path>
        <path id="Line" d="M47.5145504,91.6145626 L48.0143446,91.6289072 C48.0691096,91.6304791 48.0691096,91.6304791 48.3437647,91.637991 C48.6183467,91.6454079 48.9472633,91.6540128 49.3303014,91.6637069 C50.4249344,91.6914104 51.7335006,91.7222827 53.2542977,91.7555317 C57.5999044,91.8505392 62.7740077,91.9455508 68.7629894,92.0342309 C85.8752898,92.2876164 106.083687,92.4396509 129.279235,92.4396509 C146.325098,92.4396509 156.945343,100.57836 162.144531,115.80727 C166.402297,128.278668 166.975466,144.938576 164.790198,166.682976 C164.015983,174.386754 162.976072,182.161473 161.388738,192.677584 C157.015067,221.653231 156.773966,223.267535 156.76079,229.307995 L156.760035,230.303169 C156.760035,275.723026 172.646248,307.154403 200.202139,326.943958 C219.071222,340.49499 241.103166,347.168448 262.228629,349.152767 L262.536,349.18 L262.736,345.208237 L271.499373,350.153264 L262.285327,354.196946 L262.486,350.18 L262.134374,350.148318 C240.84783,348.148899 218.653372,341.426067 199.618818,327.7562 C171.799507,307.777468 155.760035,276.042861 155.760035,230.303169 L155.760756,229.297009 C155.773526,223.19203 156.010943,221.605508 160.399939,192.528331 C161.985011,182.027202 163.022981,174.267001 163.795209,166.582982 C165.967265,144.970054 165.398324,128.433028 161.198163,116.130362 C156.133114,101.294357 145.883466,93.4396509 129.279235,93.4396509 C106.078711,93.4396509 85.8653797,93.2875793 68.7481838,93.0341213 C62.7568419,92.9454063 57.580388,92.8503515 53.23244,92.7552928 C51.710493,92.7220186 50.4007793,92.6911193 49.3050011,92.6633868 C48.9213953,92.6536783 48.5919118,92.6450585 48.3167632,92.6376264 C48.0756997,92.6310333 48.0455668,92.6302092 48.0045481,92.6290371 L47.9856554,92.6284956 L47.4858612,92.614151 L47.5145504,91.6145626 Z" fill="#979797" fill-rule="nonzero"></path>
        <path d="M486.956735,192 C571.15619,192 551.478653,223.128701 570.9654,253 C593.11909,286.959465 685.956735,270.999619 685.956735,270.999619" id="Line" stroke="#979797" stroke-linecap="square" transform="translate(586.456735, 234.051006) scale(-1, 1) translate(-586.456735, -234.051006) "></path>
        <path d="M486.956735,192 C517.123111,192 566.844547,182.866025 566.844547,271.022748 C566.844547,339.221552 685.956735,349.45231 685.956735,349.45231" id="Line" stroke="#979797" stroke-linecap="square" transform="translate(586.456735, 270.591592) scale(-1, 1) translate(-586.456735, -270.591592) "></path>
        <path id="Line" d="M459.194827,188 L468.194827,192.5 L459.194827,197 L459.194,193 L444,193 L444,192 L459.194,192 L459.194827,188 Z" fill="#9B9B9B" fill-rule="nonzero"></path>
        <path id="Line" d="M330.792241,189.5 L339.792241,194 L330.792241,198.5 L330.792,194.5 L315.597414,194.5 L315.597414,193.5 L330.792,193.5 L330.792241,189.5 Z" fill="#9B9B9B" fill-rule="nonzero"></path>
        <path id="Line" d="M282.792241,87.5 L291.792241,92 L282.792241,96.5 L282.792,92.5 L267.597414,92.5 L267.597414,91.5 L282.792,91.5 L282.792241,87.5 Z" fill="#9B9B9B" fill-rule="nonzero"></path>
        <path id="Line" d="M385.792241,88.5 L394.792241,93 L385.792241,97.5 L385.792,93.5 L370.597414,93.5 L370.597414,92.5 L385.792,92.5 L385.792241,88.5 Z" fill="#9B9B9B" fill-rule="nonzero"></path>
        <path id="Line" d="M497.194827,88 L506.194827,92.5 L497.194827,97 L497.194,93 L482,93 L482,92 L497.194,92 L497.194827,88 Z" fill="#9B9B9B" fill-rule="nonzero"></path>
    </g>
</svg>