<?xml version="1.0" encoding="UTF-8"?>
<svg width="628px" height="183px" viewBox="0 0 628 183" version="1.1" xmlns="http://www.w3.org/2000/svg" xmlns:xlink="http://www.w3.org/1999/xlink">
    <title>runtime-overview copy</title>
    <g id="runtime-overview-copy" stroke="none" stroke-width="1" fill="none" fill-rule="evenodd">
        <path d="M398.991402,14.5 C401.064383,14.5 402.941164,15.3398729 404.299918,16.6966489 C405.659118,18.0538706 406.5,19.9283947 406.5,21.9969413 L406.5,21.9969413 L406.5,60.0030587 C406.5,62.0736693 405.660231,63.9482088 404.301552,65.3049098 C402.943225,66.6612603 401.06631,67.5 398.991402,67.5 L398.991402,67.5 L230.008598,67.5 C227.935617,67.5 226.058836,66.6601271 224.700082,65.3033511 C223.340882,63.9461294 222.5,62.0716053 222.5,60.0030587 L222.5,60.0030587 L222.5,21.9969413 C222.5,19.9263307 223.339769,18.0517912 224.698448,16.6950902 C226.056775,15.3387397 227.93369,14.5 230.008598,14.5 L230.008598,14.5 Z" id="Rectangle-Copy-10" stroke="#979797" fill="#FFFFFF"></path>
        <text id="Root-Layer-(en)" font-family="GTPressura, GT Pressura" font-size="14" font-weight="normal" fill="#000000">
            <tspan x="268.025" y="46">Root Layer  (en)</tspan>
        </text>
        <path d="M191.991402,112.5 C194.064383,112.5 195.941164,113.339873 197.299918,114.696649 C198.659118,116.053871 199.5,117.928395 199.5,119.996941 L199.5,119.996941 L199.5,158.003059 C199.5,160.073669 198.660231,161.948209 197.301552,163.30491 C195.943225,164.66126 194.06631,165.5 191.991402,165.5 L191.991402,165.5 L23.0085983,165.5 C20.9356173,165.5 19.0588362,164.660127 17.7000824,163.303351 C16.3408823,161.946129 15.5,160.071605 15.5,158.003059 L15.5,158.003059 L15.5,119.996941 C15.5,117.926331 16.3397692,116.051791 17.6984478,114.69509 C19.0567754,113.33874 20.9336896,112.5 23.0085983,112.5 L23.0085983,112.5 Z" id="Rectangle-Copy-10" stroke="#979797" fill="#FFFFFF"></path>
        <text id="Norwegian-layer-(no)" font-family="GTPressura, GT Pressura" font-size="14" font-weight="normal" fill="#000000">
            <tspan x="46.366" y="143">Norwegian layer  (no)</tspan>
        </text>
        <path d="M398.991402,112.5 C401.064383,112.5 402.941164,113.339873 404.299918,114.696649 C405.659118,116.053871 406.5,117.928395 406.5,119.996941 L406.5,119.996941 L406.5,158.003059 C406.5,160.073669 405.660231,161.948209 404.301552,163.30491 C402.943225,164.66126 401.06631,165.5 398.991402,165.5 L398.991402,165.5 L230.008598,165.5 C227.935617,165.5 226.058836,164.660127 224.700082,163.303351 C223.340882,161.946129 222.5,160.071605 222.5,158.003059 L222.5,158.003059 L222.5,119.996941 C222.5,117.926331 223.339769,116.051791 224.698448,114.69509 C226.056775,113.33874 227.93369,112.5 230.008598,112.5 L230.008598,112.5 Z" id="Rectangle-Copy-10" stroke="#979797" fill="#FFFFFF"></path>
        <text id="German-layer-(de)" font-family="GTPressura, GT Pressura" font-size="14" font-weight="normal" fill="#000000">
            <tspan x="261.297" y="144">German layer  (de)</tspan>
        </text>
        <path d="M605.991402,112.5 C608.064383,112.5 609.941164,113.339873 611.299918,114.696649 C612.659118,116.053871 613.5,117.928395 613.5,119.996941 L613.5,119.996941 L613.5,158.003059 C613.5,160.073669 612.660231,161.948209 611.301552,163.30491 C609.943225,164.66126 608.06631,165.5 605.991402,165.5 L605.991402,165.5 L437.008598,165.5 C434.935617,165.5 433.058836,164.660127 431.700082,163.303351 C430.340882,161.946129 429.5,160.071605 429.5,158.003059 L429.5,158.003059 L429.5,119.996941 C429.5,117.926331 430.339769,116.051791 431.698448,114.69509 C433.056775,113.33874 434.93369,112.5 437.008598,112.5 L437.008598,112.5 Z" id="Rectangle-Copy-10" stroke="#979797" fill="#FFFFFF"></path>
        <text id="French-layer-(fr)" font-family="GTPressura, GT Pressura" font-size="14" font-weight="normal" fill="#000000">
            <tspan x="474.8" y="144">French layer (fr)</tspan>
        </text>
        <path id="Line" d="M280.024193,66.8540693 L289.975411,68.3451312 L282.811831,75.4114683 L281.572,71.608 L157.654869,111.975411 L157.179458,112.13028 L156.86972,111.179458 L157.345131,111.024589 L281.262,70.657 L280.024193,66.8540693 Z" fill="#9B9B9B" fill-rule="nonzero"></path>
        <path id="Line" d="M346.016141,67.1060644 L344.676,70.875 L457.667428,111.028865 L458.138563,111.196293 L457.803707,112.138563 L457.332572,111.971135 L344.342,71.817 L343.002437,75.5864881 L336.028865,68.332572 L346.016141,67.1060644 Z" fill="#9B9B9B" fill-rule="nonzero"></path>
        <path id="Line" d="M315.511361,68.0001291 L319.805706,77.1000519 L315.806,77.009 L314.999871,112.511361 L314.98851,113.011232 L313.988768,112.98851 L314.000129,112.488639 L314.806,76.986 L310.80803,76.8955593 L315.511361,68.0001291 Z" fill="#9B9B9B" fill-rule="nonzero"></path>
    </g>
</svg>