<?xml version="1.0" encoding="UTF-8"?>
<svg width="768px" height="200px" viewBox="0 0 768 200" version="1.1" xmlns="http://www.w3.org/2000/svg" xmlns:xlink="http://www.w3.org/1999/xlink">
    <!-- Generator: Sketch 61 (89581) - https://sketch.com -->
    <title>webapp-pipeline</title>
    <desc>Created with Sketch.</desc>
    <g id="webapp-pipeline" stroke="none" stroke-width="1" fill="none" fill-rule="evenodd">
        <path d="M143.5,24.0047607 L143.5,129.995239 C143.5,134.13923 146.858403,137.5 151.000023,137.5 L602.999977,137.5 C607.142495,137.5 610.5,134.14031 610.5,129.995239 L610.5,24.0047607 C610.5,19.8607704 607.141597,16.5 602.999977,16.5 L151.000023,16.5 C146.857505,16.5 143.5,19.8596895 143.5,24.0047607 Z" id="Rectangle" stroke="#979797" fill="#FFFFFF"></path>
        <path d="M-174.5,25.0047607 L-174.5,130.995239 C-174.5,135.139264 -171.142679,138.5 -167.002472,138.5 L116.002472,138.5 C120.14391,138.5 123.5,135.140529 123.5,130.995239 L123.5,25.0047607 C123.5,20.8607355 120.142679,17.5 116.002472,17.5 L-167.002472,17.5 C-171.14391,17.5 -174.5,20.8594712 -174.5,25.0047607 Z" id="Rectangle" stroke="#979797" fill="#FFFFFF"></path>
        <path d="M193.5,71.9969413 L193.5,110.003059 C193.5,114.140427 196.862411,117.5 201.006848,117.5 L552.993152,117.5 C557.140369,117.5 560.5,114.144005 560.5,110.003059 L560.5,71.9969413 C560.5,67.8595734 557.137589,64.5 552.993152,64.5 L201.006848,64.5 C196.859631,64.5 193.5,67.8559952 193.5,71.9969413 Z" id="Rectangle" stroke="#979797" fill="#FFE6E6"></path>
        <text id="Webapp-controller" font-family="GTPressura, GT Pressura" font-size="14" font-weight="normal" fill="#000000">
            <tspan x="324.211" y="97">Webapp controller</tspan>
        </text>
        <path id="Line" d="M184.014183,90 L193.014183,94.5 L184.014183,99 L184.014,95 L50.9972678,95 L50.9972678,94 L184.014,94 L184.014183,90 Z" fill="#9B9B9B" fill-rule="nonzero"></path>
        <text id="Webapp-Engine" font-family="GTPressura-Bold, GT Pressura" font-size="14" font-weight="bold" fill="#000000">
            <tspan x="331.281" y="45">Webapp Engine</tspan>
        </text>
        <text id="Common-pipeline" font-family="GTPressura-Bold, GT Pressura" font-size="14" font-weight="bold" fill="#000000">
            <tspan x="34.964" y="49">Common</tspan>
            <tspan x="37.456" y="68">pipeline</tspan>
        </text>
        <path d="M631.5,24.0047607 L631.5,129.995239 C631.5,134.139264 634.857321,137.5 638.997528,137.5 L922.002472,137.5 C926.14391,137.5 929.5,134.140529 929.5,129.995239 L929.5,24.0047607 C929.5,19.8607355 926.142679,16.5 922.002472,16.5 L638.997528,16.5 C634.85609,16.5 631.5,19.8594712 631.5,24.0047607 Z" id="Rectangle" stroke="#979797" fill="#FFFFFF"></path>
        <text id="Common-pipeline" font-family="GTPressura-Bold, GT Pressura" font-size="14" font-weight="bold" fill="#000000">
            <tspan x="676.964" y="49">Common</tspan>
            <tspan x="679.456" y="68">pipeline</tspan>
        </text>
        <path id="Line" d="M705.052971,87 L714.052971,91.5 L705.052971,96 L705.052,92 L562,92 L562,91 L705.052,91 L705.052971,87 Z" fill="#9B9B9B" fill-rule="nonzero"></path>
        <text id="Both" font-family="GTPressura, GT Pressura" font-size="14" font-weight="normal" fill="#000000">
            <tspan x="561.015" y="171">Both</tspan>
        </text>
        <path d="M218.5,160.995275 L218.5,171.004725 C218.5,175.138958 221.857116,178.5 225.991652,178.5 L234.008348,178.5 C238.144473,178.5 241.5,175.143559 241.5,171.004725 L241.5,160.995275 C241.5,156.861042 238.142884,153.5 234.008348,153.5 L225.991652,153.5 C221.855527,153.5 218.5,156.856441 218.5,160.995275 Z" id="Rectangle" stroke="#979797" fill="#DAFFB5"></path>
        <path d="M524.5,160.995275 L524.5,171.004725 C524.5,175.138958 527.857116,178.5 531.991652,178.5 L540.008348,178.5 C544.144473,178.5 547.5,175.143559 547.5,171.004725 L547.5,160.995275 C547.5,156.861042 544.142884,153.5 540.008348,153.5 L531.991652,153.5 C527.855527,153.5 524.5,156.856441 524.5,160.995275 Z" id="Rectangle" stroke="#979797" fill="#FFE6E6"></path>
        <path d="M365.5,161.995275 L365.5,172.004725 C365.5,176.138958 368.857116,179.5 372.991652,179.5 L381.008348,179.5 C385.144473,179.5 388.5,176.143559 388.5,172.004725 L388.5,161.995275 C388.5,157.861042 385.142884,154.5 381.008348,154.5 L372.991652,154.5 C368.855527,154.5 365.5,157.856441 365.5,161.995275 Z" id="Rectangle" stroke="#979797" fill="#C6DDFF"></path>
        <text id="Configurable" font-family="GTPressura, GT Pressura" font-size="14" font-weight="normal" fill="#000000">
            <tspan x="253.174" y="171">Configurable</tspan>
        </text>
        <text id="Programmable" font-family="GTPressura, GT Pressura" font-size="14" font-weight="normal" fill="#000000">
            <tspan x="402.176" y="171">Programmable</tspan>
        </text>
    </g>
</svg>